<svg xmlns="http://www.w3.org/2000/svg" width="460" height="265" x="0" y="0" enable-background="new 0 0 460 265" version="1.1" viewBox="0 0 460 265" xml:space="preserve"><path fill="#18C099" d="M404.7 13.9H55.3c-0.7 0-1.2 0.5-1.2 1.2v218.5c0 0.7 0.5 1.2 1.2 1.2h349.5c0.7 0 1.2-0.5 1.2-1.2V15.1C405.9 14.4 405.4 13.9 404.7 13.9zM404.7 233.6H55.3V15.1h349.5V233.6zM459.3 250.2h-42.5c0.5-1.4 0.8-2.9 0.8-4.5V13.9c0-7.7-6.3-13.9-14-13.9H56.5c-7.7 0-14 6.3-14 13.9v231.8c0 1.6 0.3 3.1 0.8 4.5H0.7c-0.4 0-0.7 0.3-0.7 0.7v7.1c0 0.2 0 0.8 0.5 1.2 0.1 0.1 0.3 0.2 0.4 0.3 0 0 0 0 0 0 3.2 2.2 11.1 5.4 20 5.4H439c8.9 0 16.9-3.2 20-5.4h0c0.2-0.1 0.4-0.3 0.5-0.4 0.4-0.3 0.4-0.8 0.4-1V251C460 250.6 459.7 250.2 459.3 250.2zM43.5 13.9c0-7.2 5.8-13 13-13h347.1c7.2 0 13 5.8 13 13v231.8c0 1.6-0.3 3.1-0.8 4.5h-38l0-0.2 -1.1-5h33.9c2.7 0 4.8-2.2 4.8-4.8v-22.6 -1.2V13.8c0-6.4-5.2-11.5-11.5-11.5H56.3c-6.4 0-11.5 5.2-11.5 11.5v202.6 1.2 22.6c0 2.7 2.2 4.8 4.8 4.8h32.8l-1.1 5 0 0.2H44.3c-0.5-1.4-0.8-2.9-0.8-4.5V13.9zM197.5 250.2h-47.6 -15.1H82.2l1.2-5.2h51.4 15.1 225.7l1.2 5.2H262.5 197.5zM261.5 251.2c-0.3 1.6-1.8 4.2-4.5 4.2h-54c-2.7 0-4.2-2.7-4.5-4.2H261.5zM49.6 244c-2.1 0-3.9-1.7-3.9-3.9v-22.6 -1.2V13.8c0-5.8 4.7-10.6 10.6-10.6h347.4c5.8 0 10.6 4.7 10.6 10.6v202.6 1.2 22.6c0 2.1-1.7 3.9-3.9 3.9H49.6zM439 264H21c-7.5 0-14.4-2.4-18-4.4h454.1C453.4 261.7 446.6 264 439 264zM459 258.2c0 0.1 0 0.2 0 0.2 -0.1 0.1-0.2 0.2-0.3 0.3H1.4c-0.1-0.1-0.2-0.1-0.3-0.2C1 258.4 1 258.4 1 258.1v-6.9h80 1.2 52.5 15.1 47.7c0.3 2 2.2 5.2 5.5 5.2h54c3.3 0 5.2-3.2 5.5-5.2h114.2 1.2H459V258.2z"/><path fill="#DDD" d="M204 76.8v5c0 1.3 1.1 2.6 2.4 2.6h46c1.3 0 2.6-1.3 2.6-2.6v-16c0-1.3-1.3-2.4-2.6-2.4h-46c-1.3 0-2.4 1.1-2.4 2.4v5c-2 0.2-2.5 1.6-2.9 2.6H185v1h16.1C201.2 75.5 202 76.7 204 76.8zM208 67.5h43v13h-43V67.5zM386.8 164.5h-46c-1.3 0-1.8 0.5-1.8 1.8v5.1c-1 0-0.5 0.2-0.7 0.2 -1.6 0-3 1-3.1 3H322v-8.2c0-1.3-1.1-1.8-2.4-1.8h-46c-1.3 0-1.6 0.5-1.6 1.8v5.1c-1 0-0.6 0.2-0.8 0.2 -1.6 0-3 1-3.1 3H255v-8.2c0-1.3-1.3-1.8-2.6-1.8h-46c-1.3 0-2.4 0.5-2.4 1.8v5.4c-2 0.2-2.6 0.8-2.9 2.8H188v-8.2c0-1.3-1.5-1.8-2.8-1.8h-46c-1.3 0-2.2 0.5-2.2 1.8v5c-2 0.2-2.9 1.2-3 3.2H96v-33h38c0.1 1 1 2.1 3 2.3v5c0 1.3 0.9 2.7 2.2 2.7h46c1.3 0 2.8-1.4 2.8-2.7v-7.3h13.1c0.1 1 0.9 2.1 2.9 2.3v5c0 1.3 1.1 2.7 2.4 2.7h46c1.3 0 2.6-1.4 2.6-2.7v-16c0-1.3-1.3-2.3-2.6-2.3h-46c-1.3 0-2.4 1-2.4 2.3v5c-2 0.2-2.5 1.6-2.9 2.6H188v-7.7c0-1.3-1.5-2.3-2.8-2.3h-46c-1.3 0-2.2 1-2.2 2.3v5c-2 0.1-2.6 1.6-2.9 2.6H96v-32h38.1c0.3 1 0.9 1.7 2.9 1.8v5c0 1.3 0.9 2.2 2.2 2.2h46c1.3 0 2.8-0.9 2.8-2.2v-6.8h13.1c0.2 1 0.9 2 2.9 2.2v4.6c0 1.3 1.1 2.2 2.4 2.2h46c1.3 0 2.6-0.9 2.6-2.2v-16c0-1.3-1.3-1.9-2.6-1.9h-46c-1.3 0-2.4 0.6-2.4 1.9v5.4c-2 0.2-2.6 1.7-2.9 2.7H188v-8.1c0-1.3-1.5-1.9-2.8-1.9h-46c-1.3 0-2.2 0.6-2.2 1.9v5c-2 0.2-2.8 1.1-3 3.1H96v-25h-1v57.6 1 34.4h39.1c0.3 1 0.9 1.6 2.9 1.8v5c0 1.3 0.9 2.2 2.2 2.2h46c1.3 0 2.8-0.9 2.8-2.2v-6.8h6v34h7.3c0.4 1 1.7 1.1 2.7 1.2v5c0 1.3 1.1 2.7 2.4 2.7h46c1.3 0 2.6-1.5 2.6-2.7v-16c0-1.3-1.3-2.3-2.6-2.3h-46c-1.3 0-2.4 1-2.4 2.3v5c-2 0.2-2.8 1.7-2.8 3.2 0 0.1-0.1 0.5-0.1 0.5H195v-33h6.1c0.2 1 0.9 2 2.9 2.2v4.6c0 1.3 1.1 2.2 2.4 2.2h46c1.3 0 2.6-0.9 2.6-2.2v-6.8h7v34h6.3c0.5 1 1.7 1.5 2.9 1.5 0.2 0-0.2-0.3 0.8-0.3v5.1c0 1.3 0.3 2.7 1.6 2.7h46c1.3 0 2.4-1.5 2.4-2.7v-16c0-1.3-1.1-2.3-2.4-2.3h-46c-1.3 0-1.6 1-1.6 2.3v5.1c-1 0-0.6-0.1-0.8-0.1 -1.7 0-3.1 1.6-3.1 3.2 0 0.1-0.1 0.5-0.1 0.5H263v-33h5.2c0.3 1 1.7 2 3.1 2 0.2 0-0.2-0.3 0.8-0.3v5.1c0 1.3 0.3 2.2 1.6 2.2h46c1.3 0 2.4-0.9 2.4-2.2v-6.8h13.2c0.3 1 1.7 2 3.1 2 0.2 0-0.3-0.3 0.7-0.3v5.1c0 1.3 0.5 2.2 1.8 2.2h46c1.3 0 3.2-0.9 3.2-2.2v-16C390 165 388.1 164.5 386.8 164.5zM208 134.5h43v13h-43V134.5zM141 134.5h43v13h-43V134.5zM208 101.5h43v12h-43V101.5zM141 101.5h43v12h-43V101.5zM184 180.5h-43v-12h43V180.5zM208 201.5h43v13h-43V201.5zM251 180.5h-43v-12h43V180.5zM276 201.5h42v13h-42V201.5zM318 180.5h-42v-12h42V180.5zM386 180.5h-43v-12h43V180.5zM386.8 30.5h-46c-1.3 0-1.8 0.6-1.8 1.9v5.4c-1 0-0.5 0.1-0.7 0.1 -1.4 0-2.8 0.5-3.1 2.5H320v1h15.1c0.2 1 1.6 2.5 3.1 2.5 0.2 0-0.3-0.2 0.7-0.2v4.7c0 1.3 0.5 2.1 1.8 2.1h46c1.3 0 3.2-0.8 3.2-2.1v-16C390 31.1 388.1 30.5 386.8 30.5zM386 46.5h-43v-12h43V46.5zM386.8 63.5h-46c-1.3 0-1.8 1.1-1.8 2.4v4.9c-1 0-0.5 0.1-0.7 0.1 -1.4 0-2.8 0.5-3.1 2.5H328v1h7.1c0.2 1 1.6 2.5 3.1 2.5 0.2 0-0.3-0.2 0.7-0.3v5.2c0 1.3 0.5 2.6 1.8 2.6h46c1.3 0 3.2-1.3 3.2-2.6v-16C390 64.6 388.1 63.5 386.8 63.5zM386 80.5h-43v-13h43V80.5z"/><path id="branch" fill="#DDD" d="M387.8 97.5h-46c-1.3 0-3.8 1.1-3.8 2.4v5.4c-1 0-2.4 1.3-2.4 2.9 0 0.1 0.6 0.3 0.6 0.3H329V41.7v-1.2h-0.2H322V33c0-1.3-0.1-2.5-1.4-2.5h-46c-1.3 0-3.6 1.2-3.6 2.5v5.4c0 0 0.5-0.1 0.5-0.1 -1.4 0-2.1 1.2-2.4 2.2H255V33c0-1.3-0.3-2.5-1.6-2.5h-46c-1.3 0-3.4 1.2-3.4 2.5v5.4c0 0 0.5-0.1 0.5-0.1 -1.4 0-2.1 1.2-2.4 2.2H194v33h-7v-7.1c0-1.3 0.5-2.9-0.8-2.9h-46c-1.3 0-3.2 1.7-3.2 2.9v4.9c0 0 0.5-0.1 0.5-0.1 -1.4 0-2.1 1.2-2.4 2.2H120v-7.1c0-1.3 0.3-2.9-1-2.9H98.9c-0.3-1-1.9-1.8-2.9-2.1v-9.9h23c1.3 0 1-1.2 1-2.5V33c0-1.3 0.3-2.5-1-2.5H73c-1.3 0-3 1.2-3 2.5v16c0 1.3 1.7 2.5 3 2.5h22v9.9c-2 0.1-1.6 1.1-1.9 2.1H73c-1.3 0-3 1.7-3 2.9v16c0 1.3 1.7 2.1 3 2.1h46c1.3 0 1-0.8 1-2.1v-7.9h15c0.2 1 0.9 2.7 2.4 2.7 0 0-0.5 0.1-0.5 0.1v5.1c0 1.3 1.9 2.1 3.2 2.1h46c1.3 0 0.8-0.8 0.8-2.1v-7.9h7.7 0.3v-0.8V41.5h7.1c0.2 2 0.9 2.8 2.4 2.8 0 0-0.5 0.1-0.5 0.1V49c0 1.3 2.1 2.5 3.4 2.5h46c1.3 0 1.6-1.2 1.6-2.5v-7.5h14.1c0.2 2 0.9 2.8 2.4 2.8 0 0-0.5 0.1-0.5 0.1V49c0 1.3 2.3 2.5 3.6 2.5h46c1.3 0 1.4-1.2 1.4-2.5v-7.5h6v68h8.4c0.5 1 0.6 1.8 1.6 1.8v4.6c0 1.3 2.5 2.6 3.8 2.6h46c1.3 0 1.2-1.4 1.2-2.6v-16C389 98.6 389.1 97.5 387.8 97.5zM74 34.5h42v13H74V34.5zM116 80.5H74v-13h42V80.5zM183 80.5h-42v-13h42V80.5zM251 47.5h-43v-13h43V47.5zM318 47.5h-43v-13h43V47.5zM385 114.5h-43v-13h43V114.5z"/></svg>