<svg xmlns="http://www.w3.org/2000/svg" width="460" height="265" x="0" y="0" enable-background="new 0 0 460 265" version="1.1" viewBox="0 0 460 265" xml:space="preserve"><path fill="#FC7B5C" d="M404.7 13.9H55.3c-0.7 0-1.2 0.5-1.2 1.2v218.5c0 0.7 0.5 1.2 1.2 1.2h349.5c0.7 0 1.2-0.5 1.2-1.2V15.1C405.9 14.4 405.4 13.9 404.7 13.9zM404.7 233.6H55.3V15.1h349.5V233.6zM459.3 250.2h-42.5c0.5-1.4 0.8-2.9 0.8-4.5V13.9c0-7.7-6.3-13.9-14-13.9H56.5c-7.7 0-14 6.3-14 13.9v231.8c0 1.6 0.3 3.1 0.8 4.5H0.7c-0.4 0-0.7 0.3-0.7 0.7v7.1c0 0.2 0 0.8 0.5 1.2 0.1 0.1 0.3 0.2 0.4 0.3 0 0 0 0 0 0 3.2 2.2 11.1 5.4 20 5.4H439c8.9 0 16.9-3.2 20-5.4h0c0.2-0.1 0.4-0.3 0.5-0.4 0.4-0.3 0.4-0.8 0.4-1V251C460 250.6 459.7 250.2 459.3 250.2zM43.5 13.9c0-7.2 5.8-13 13-13h347.1c7.2 0 13 5.8 13 13v231.8c0 1.6-0.3 3.1-0.8 4.5h-38l0-0.2 -1.1-5h33.9c2.7 0 4.8-2.2 4.8-4.8v-22.6 -1.2V13.8c0-6.4-5.2-11.5-11.5-11.5H56.3c-6.4 0-11.5 5.2-11.5 11.5v202.6 1.2 22.6c0 2.7 2.2 4.8 4.8 4.8h32.8l-1.1 5 0 0.2H44.3c-0.5-1.4-0.8-2.9-0.8-4.5V13.9zM197.5 250.2h-47.6 -15.1H82.2l1.2-5.2h51.4 15.1 225.7l1.2 5.2H262.5 197.5zM261.5 251.2c-0.3 1.6-1.8 4.2-4.5 4.2h-54c-2.7 0-4.2-2.7-4.5-4.2H261.5zM49.6 244c-2.1 0-3.9-1.7-3.9-3.9v-22.6 -1.2V13.8c0-5.8 4.7-10.6 10.6-10.6h347.4c5.8 0 10.6 4.7 10.6 10.6v202.6 1.2 22.6c0 2.1-1.7 3.9-3.9 3.9H49.6zM439 264H21c-7.5 0-14.4-2.4-18-4.4h454.1C453.4 261.7 446.6 264 439 264zM459 258.2c0 0.1 0 0.2 0 0.2 -0.1 0.1-0.2 0.2-0.3 0.3H1.4c-0.1-0.1-0.2-0.1-0.3-0.2C1 258.4 1 258.4 1 258.1v-6.9h80 1.2 52.5 15.1 47.7c0.3 2 2.2 5.2 5.5 5.2h54c3.3 0 5.2-3.2 5.5-5.2h114.2 1.2H459V258.2z"/><g id="versions"><path fill="#E6DE5B" d="M347.2 54.5h-85.8c-2.1 0-4.3 1-4.3 3.1v33.8c0 2.1 2.2 4.1 4.3 4.1h85.8c2.1 0 3.8-2 3.8-4.1V57.6C351 55.5 349.3 54.5 347.2 54.5zM344 88.5h-80v-28h80V88.5zM198.7 54.5h-85.8c-2.1 0-3.8 1-3.8 3.1v33.8c0 2.1 1.7 4.1 3.8 4.1h85.8c2.1 0 3.3-2 3.3-4.1V57.6C202 55.5 200.8 54.5 198.7 54.5zM196 88.5h-80v-28h80V88.5z"/><path fill="#FC7B5C" d="M130.3 80.3l-3.2-7.7h1.8l2.3 5.8 2.3-5.8h1.8l-3.2 7.7H130.3zM142.4 80.3v-8.2l-1.7 1.8 -1.1-1.1 3.1-3.1h1.6v10.7H142.4zM146.2 79.4c0-0.6 0.5-1.1 1.1-1.1s1.1 0.5 1.1 1.1 -0.5 1.1-1.1 1.1S146.2 80 146.2 79.4zM149.5 75c0-2.7 1.3-5.5 4.3-5.5s4.3 2.8 4.3 5.5c0 2.7-1.3 5.5-4.3 5.5S149.5 77.7 149.5 75zM156.2 75c0-2-0.6-3.8-2.4-3.8 -1.7 0-2.4 1.8-2.4 3.8 0 2 0.6 3.9 2.4 3.9C155.6 78.8 156.2 77 156.2 75zM159.2 79.4c0-0.6 0.5-1.1 1.1-1.1s1.1 0.5 1.1 1.1 -0.5 1.1-1.1 1.1S159.2 80 159.2 79.4zM167.8 80.3v-2.4h-5.1v-1.5l4.4-6.8h2.6v6.6h1.4v1.6h-1.4v2.4H167.8zM167.8 71.3l-3.2 4.9h3.2V71.3zM172.4 79.4c0-0.6 0.5-1.1 1.1-1.1s1.1 0.5 1.1 1.1 -0.5 1.1-1.1 1.1S172.4 80 172.4 79.4zM175.8 78.8l1-1.2c0.7 0.8 1.8 1.3 3 1.3 1.4 0 2.2-0.6 2.2-1.6 0-1.1-0.8-1.5-2.4-1.5 -0.4 0-1.1 0-1.2 0V74c0.2 0 0.8 0 1.2 0 1.2 0 2.2-0.4 2.2-1.4 0-1-1-1.5-2.2-1.5 -1.1 0-2 0.4-2.8 1.2l-1-1.2c0.8-1 2.1-1.7 3.9-1.7 2.3 0 3.9 1.1 3.9 2.9 0 1.4-1.2 2.3-2.3 2.4 1 0.1 2.5 0.9 2.5 2.6 0 1.8-1.6 3.1-4 3.1C178 80.5 176.6 79.7 175.8 78.8z"/><path fill="#FC7B5C" d="M280.8 80.2l-3.1-7.7 1.8 0 2.2 5.8 2.3-5.8 1.8 0 -3.2 7.7L280.8 80.2zM292.9 80.3l0-8.2 -1.8 1.8 -1.1-1.1 3.1-3.1 1.6 0 0 10.7L292.9 80.3zM296.7 79.3c0-0.6 0.5-1.1 1.1-1.1s1.1 0.5 1.1 1.1 -0.5 1.1-1.1 1.1C297.2 80.4 296.7 79.9 296.7 79.3zM301.4 80.3l0-8.2 -1.8 1.80 -1.1-1.1 3.1-3.1 1.6 0 0 10.7L301.4 80.3zM305.3 79.3c0-0.6 0.5-1.1 1.1-1.1 0.6 0 1.1 0.5 1.1 1.1s-0.5 1.1-1.1 1.1C305.8 80.5 305.3 80 305.3 79.3zM309.1 77.6c0-1.4 1.1-2.3 2.4-2.8 -1.2-0.4-2.2-1.2-2.2-2.5 0-2 2-2.8 3.9-2.8 1.9 0 3.9 0.8 3.9 2.8 0 1.4-1 2.1-2.2 2.5 1.3 0.4 2.4 1.4 2.4 2.8 0 1.9-1.9 2.9-4.1 2.9C311 80.5 309 79.5 309.1 77.6zM315.3 77.3c0-1.1-1.5-1.6-2.2-1.7 -0.7 0.1-2.2 0.6-2.2 1.7 0 0.9 1 1.5 2.2 1.5C314.3 78.9 315.3 78.3 315.3 77.3zM315.2 72.6c0-0.9-0.9-1.4-2-1.4 -1.2 0-2 0.5-2 1.4 0 1 1.4 1.4 2 1.5C313.8 74 315.2 73.6 315.2 72.6zM318.7 79.4c0-0.6 0.5-1.1 1.1-1.1 0.6 0 1.1 0.5 1.1 1.1s-0.5 1.1-1.1 1.1C319.2 80.5 318.7 80 318.7 79.4zM322.6 80.4l0-1.5c4.2-3.1 5.8-4.5 5.8-6 0-1.1-1-1.6-1.9-1.6 -1.2 0-2.2 0.5-2.9 1.3l-1.1-1.2c0.9-1.1 2.5-1.7 3.9-1.7 2.1 0 3.9 1.2 3.9 3.3 0 2-1.8 3.7-4.7 5.9l4.7 0 0 1.6L322.6 80.4z"/></g><g id="thumbs"><path fill="#E6DE5B" d="M304.5 139.7c-19.6 0-35.5 15.9-35.5 35.5 0 19.6 15.9 35.5 35.5 35.5s35.5-15.9 35.5-35.5C340 155.7 324.1 139.7 304.5 139.7zM304.5 208.7c-18.5 0-33.5-15-33.5-33.5 0-18.5 15-33.5 33.5-33.5s33.5 15 33.5 33.5C338 193.7 323 208.7 304.5 208.7zM156 139.7c-19.6 0-35.5 15.9-35.5 35.5 0 19.6 15.9 35.5 35.5 35.5s35.5-15.9 35.5-35.5C191.5 155.7 175.6 139.7 156 139.7zM156 208.7c-18.5 0-33.5-15-33.5-33.5 0-18.5 15-33.5 33.5-33.5s33.5 15 33.5 33.5C189.5 193.7 174.5 208.7 156 208.7z"/><path fill="#FC7B5C" d="M312.3 160.1l-7.5-1.3c-0.2 0-4.1-0.3-7.7-0.3 0 0 0 0 0 0 -2.2 0-3.8 0-4.7 0.3 -1.2 0.4-3 1.9-3.5 3 -0.2 0.4-0.2 0.9-0.1 1.5 0 0.2 0 0.6 0 0.6 -0.1 0.1-0.4 0.4-0.6 0.6 -0.6 0.6-1.5 1.4-1.5 2.4 0 0.5 0.2 1.1 0.4 1.6 0.1 0.3 0.3 0.8 0.3 0.8 -0.1 0.1-0.3 0.5-0.5 0.6 -0.5 0.6-1 1.1-1 1.9 0 0.6 0.4 1.2 0.7 1.8 0.1 0.2 0.4 0.6 0.4 0.8 -0.1 0.1-0.2 0.3-0.4 0.5 -0.4 0.5-0.8 1-0.8 1.6 -0.1 1.6 1.7 4 3 4.5 0.5 0.2 1.7 0.5 5.9 0.5 1.2 0 2.4 0 3.1 0 -0.2 0.9-1 2.6-1.4 3.4 -0.3 0.5-0.5 1-0.7 1.4 -1 2.5-0.8 5.7 0.5 7.4 1.1 1.4 2.7 2 3.8 2 1.3 0 1.9-0.8 1.9-1.4 0.4-5.6 1.4-6.9 2.5-7.7 0.9-0.7 1.9-1.5 2.4-2.8 2.8-7.1 4.5-7.3 4.5-7.3h0.7c0.6 0 0.8-0.4 0.8-0.9v-14.5C313 160.6 312.8 160.2 312.3 160.1zM311 174.6c-2 0.3-3.8 3-6 8.5 -0.3 0.8-0.9 1.2-1.7 1.9 -1.8 1.4-2.9 3.3-3.3 8.7 -0.6 0-1.5-0.4-2.1-1.2 -0.9-1.1-1-3.6-0.2-5.4 0.1-0.3 0.4-0.8 0.6-1.2 1-2 2.2-4.3 1.3-5.8 -0.2-0.3-0.5-0.5-0.9-0.5 0 0-1.9 0.1-3.9 0.1 -4 0-5-0.3-5.2-0.3 -0.6-0.2-1.8-1.9-1.7-2.5 0-0.1 0.3-0.4 0.4-0.6 0.3-0.4 0.7-0.9 0.8-1.5 0.1-0.7-0.3-1.4-0.7-2.1 -0.1-0.2-0.3-0.5-0.4-0.7 0.1-0.2 0.3-0.4 0.5-0.6 0.5-0.5 0.9-1.1 1-1.7 0.1-0.6-0.2-1.2-0.5-1.8 -0.1-0.3-0.3-0.7-0.3-0.9 0-0.2 0.6-0.7 0.8-1 0.4-0.4 0.8-0.7 1-1.2 0.3-0.5 0.2-1.1 0.2-1.6 0-0.2 0-0.6 0-0.6 0.3-0.6 1.6-1.7 2.2-1.9 0.5-0.2 1.7-0.2 4.1-0.2 0 0 0 0 0 0 3.5 0 7.4 0.3 7.4 0.3l6.5 1.1V174.6zM321 159.5h-4.2c-1.3 0-2.7 1-2.7 2.3v13.4c0 1.3 1.4 2.2 2.7 2.2h4.2c1.3 0 2-0.9 2-2.2v-13.4C323 160.5 322.3 159.5 321 159.5zM321 175.1c0 0.2-0.2 0.4-0.4 0.4h-4.2c-0.2 0-0.4-0.2-0.4-0.4v-13.2c0-0.2 0.2-0.4 0.4-0.4h4.2c0.2 0 0.4 0.2 0.4 0.4V175.1zM172.6 179.5c0.1-0.1 0.3-0.5 0.5-0.6 0.5-0.6 1-1.1 1-1.9 0-0.6-0.4-1.2-0.7-1.8 -0.1-0.2-0.4-0.6-0.4-0.8 0.1-0.1 0.2-0.3 0.4-0.5 0.4-0.5 0.8-1 0.8-1.6 0.1-1.6-1.7-4-3-4.5 -0.5-0.2-1.7-0.5-5.9-0.5 -1.2 0-2.4 0-3.1 0 0.2-0.9 1-2.6 1.4-3.4 0.3-0.5 0.5-1 0.7-1.4 1-2.5 0.8-5.7-0.5-7.4 -1.1-1.4-2.7-2-3.8-2 -1.3 0-1.9 0.8-1.9 1.4 -0.4 5.6-1.4 6.9-2.5 7.7 -0.9 0.7-1.9 1.5-2.4 2.8 -2.8 7.1-4.5 7.3-4.5 7.3h-0.7c-0.6 0-0.9 0.4-0.9 0.9v14.5c0 0.5 0.3 0.9 0.8 1l7.5 1.3c0.2 0 4.2 0.3 7.8 0.3 0 0 0 0 0 0 2.2 0 3.8 0 4.7-0.3 1.2-0.4 3-1.9 3.5-3 0.2-0.4 0.2-0.9 0.1-1.5 0-0.2 0-0.6 0-0.6 0.1-0.1 0.4-0.4 0.6-0.6 0.6-0.6 1.5-1.4 1.5-2.4 0-0.5-0.2-1.1-0.4-1.6C172.8 180.1 172.6 179.6 172.6 179.5zM171.7 176.3c0.1 0.2 0.3 0.5 0.4 0.7 -0.1 0.2-0.3 0.4-0.5 0.6 -0.5 0.5-0.9 1.1-1 1.7 -0.1 0.6 0.2 1.2 0.5 1.8 0.1 0.3 0.3 0.7 0.3 0.9 0 0.2-0.6 0.7-0.8 1 -0.4 0.4-0.8 0.7-1 1.2 -0.3 0.5-0.2 1.1-0.2 1.6 0 0.2 0 0.6 0 0.6 -0.3 0.6-1.6 1.7-2.2 1.9 -0.5 0.2-1.7 0.2-4.1 0.2 0 0 0 0 0 0 -3.5 0-7.4-0.3-7.5-0.3l-6.6-1.1v-12.7c2-0.3 3.9-3 6-8.5 0.3-0.8 0.9-1.2 1.7-1.9 1.8-1.4 2.9-3.3 3.3-8.7 0.6 0 1.5 0.4 2.1 1.2 0.9 1.1 1 3.6 0.2 5.4 -0.1 0.3-0.4 0.8-0.6 1.2 -1 2-2.2 4.3-1.3 5.8 0.2 0.3 0.5 0.5 0.9 0.5 0 0 1.9-0.1 3.9-0.1 4 0 5 0.3 5.2 0.3 0.6 0.2 1.8 1.9 1.7 2.5 0 0.1-0.3 0.4-0.4 0.6 -0.3 0.4-0.7 0.9-0.8 1.5C170.9 174.9 171.3 175.6 171.7 176.3zM143.4 171.5h-4.2c-1.3 0-2.1 0.9-2.1 2.2v13.4c0 1.3 0.8 2.3 2.1 2.3h4.2c1.3 0 2.6-1 2.6-2.3v-13.4C146 172.4 144.7 171.5 143.4 171.5zM144 187.1c0 0.2-0.2 0.4-0.4 0.4h-4.2c-0.2 0-0.4-0.2-0.4-0.4v-13.2c0-0.2 0.2-0.4 0.4-0.4h4.2c0.2 0 0.4 0.2 0.4 0.4V187.1z"/></g></svg>