<svg xmlns="http://www.w3.org/2000/svg" version="1.1" x="0" y="0" width="460" height="265" viewBox="0 0 460 265" enable-background="new 0 0 460 265" xml:space="preserve">
	<path fill="#387ACC" d="M404.7 13.9H55.3c-0.7 0-1.2 0.5-1.2 1.2v218.5c0 0.7 0.5 1.2 1.2 1.2h349.5c0.7 0 1.2-0.5 1.2-1.2V15.1C405.9 14.4 405.4 13.9 404.7 13.9zM404.7 233.6H55.3V15.1h349.5V233.6zM459.3 250.2h-42.5c0.5-1.4 0.8-2.9 0.8-4.5V13.9c0-7.7-6.3-13.9-14-13.9H56.5c-7.7 0-14 6.3-14 13.9v231.8c0 1.6 0.3 3.1 0.8 4.5H0.7c-0.4 0-0.7 0.3-0.7 0.7v7.1c0 0.2 0 0.8 0.5 1.2 0.1 0.1 0.3 0.2 0.4 0.3 0 0 0 0 0 0 3.2 2.2 11.1 5.4 20 5.4H439c8.9 0 16.9-3.2 20-5.4h0c0.2-0.1 0.4-0.3 0.5-0.4 0.4-0.3 0.4-0.8 0.4-1V251C460 250.6 459.7 250.2 459.3 250.2zM43.5 13.9c0-7.2 5.8-13 13-13h347.1c7.2 0 13 5.8 13 13v231.8c0 1.6-0.3 3.1-0.8 4.5h-38l0-0.2 -1.1-5h33.9c2.7 0 4.8-2.2 4.8-4.8v-22.6 -1.2V13.8c0-6.4-5.2-11.5-11.5-11.5H56.3c-6.4 0-11.5 5.2-11.5 11.5v202.6 1.2 22.6c0 2.7 2.2 4.8 4.8 4.8h32.8l-1.1 5 0 0.2H44.3c-0.5-1.4-0.8-2.9-0.8-4.5V13.9zM197.5 250.2h-47.6 -15.1H82.2l1.2-5.2h51.4 15.1 225.7l1.2 5.2H262.5 197.5zM261.5 251.2c-0.3 1.6-1.8 4.2-4.5 4.2h-54c-2.7 0-4.2-2.7-4.5-4.2H261.5zM49.6 244c-2.1 0-3.9-1.7-3.9-3.9v-22.6 -1.2V13.8c0-5.8 4.7-10.6 10.6-10.6h347.4c5.8 0 10.6 4.7 10.6 10.6v202.6 1.2 22.6c0 2.1-1.7 3.9-3.9 3.9H49.6zM439 264H21c-7.5 0-14.4-2.4-18-4.4h454.1C453.4 261.7 446.6 264 439 264zM459 258.2c0 0.1 0 0.2 0 0.2 -0.1 0.1-0.2 0.2-0.3 0.3H1.4c-0.1-0.1-0.2-0.1-0.3-0.2C1 258.4 1 258.4 1 258.1v-6.9h80 1.2 52.5 15.1 47.7c0.3 2 2.2 5.2 5.5 5.2h54c3.3 0 5.2-3.2 5.5-5.2h114.2 1.2H459V258.2z"/>
	<path id="version1" fill="#DDDDDD" d="M161.8 86.5h46.1c1.3 0 1.1-0.9 1.1-2.2v-16c0-1.3 0.2-2.8-1.1-2.8h-46.1c-1.3 0-3.8 1.5-3.8 2.8v4.9c-1 0.2-1 0.3-1.3 2.3H142v-7.2c0-1.3-0.1-2.8-1.4-2.8h-20c-0.1-1-2.6-1.9-3.6-2.2V52.5h23.6c1.3 0 1.4-0.4 1.4-1.7v-16c0-1.3-0.1-3.3-1.4-3.3H94.5c-1.3 0-3.5 2-3.5 3.3v16c0 1.3 2.2 1.7 3.5 1.7H116v10.7c-1 0.1-1.3 1.3-1.4 2.3h-20c-1.3 0-3.5 1.5-3.5 2.8v16c0 1.3 2.2 2.2 3.5 2.2H116v55.9 1 33.1h40.7c0.3 2 0.3 3 1.3 3.1v5c0 1.3 2.5 1.8 3.8 1.8h46.1c1.3 0 1.1-0.5 1.1-1.8v-16c0-1.3 0.2-3.2-1.1-3.2h-46.1c-1.3 0-3.8 1.9-3.8 3.2v5c-1 0.2-1.2 0.8-1.4 1.8H117v-33h39.6c0.1 2 0.4 3.5 1.4 3.7v5c0 1.3 2.5 2.3 3.8 2.3h46.1c1.3 0 1.1-1 1.1-2.3v-16c0-1.3 0.2-2.7-1.1-2.7h-46.1c-1.3 0-3.8 1.4-3.8 2.7v5c-1 0.2-1 0.2-1.3 1.2H117v-32h39.7c0.3 2 0.3 3 1.3 3.2v5c0 1.3 2.5 1.8 3.8 1.8h46.1c1.3 0 1.1-0.5 1.1-1.8v-16c0-1.3 0.2-3.3-1.1-3.3h-46.1c-1.3 0-3.8 2-3.8 3.3v5c-1 0.2-1.2 0.7-1.4 1.7H117v-22h23.6c1.3 0 1.4-0.9 1.4-2.2v-7.8h14.7c0.2 1 0.3 2.4 1.3 2.6v5.1C158 85.6 160.5 86.5 161.8 86.5zM95 35.5h43v13H95V35.5zM162 169.5h43v13h-43V169.5zM162 136.5h43v13h-43V136.5zM162 102.5h43v13h-43V102.5zM138 82.5H95v-13h43V82.5zM162 69.5h43v13h-43V69.5z"/>
	<path id="version2" fill="#FC7B5C" d="M320.4 86.1h46.1c1.3 0 2.3-1 2.3-2.3v-16c0-1.3-1-2.3-2.3-2.3h-46.1c-1.3 0-2.3 1-2.3 2.3v4.9c-1.4 0.1-2.5 1-2.8 2.3h-13.8v-7.2c0-1.3-1-2.3-2.3-2.3h-20c-0.1-1.3-1-2.4-2.3-2.7V52.6h22.3c1.3 0 2.3-1 2.3-2.3v-16c0-1.3-1-2.3-2.3-2.3h-46.1c-1.3 0-2.3 1-2.3 2.3v16c0 1.3 1 2.3 2.3 2.3h22.7v10.1c-1.4 0.1-2.6 1.3-2.7 2.7h-20c-1.3 0-2.3 1-2.3 2.3v16c0 1.3 1 2.3 2.3 2.3h22.7v30.4 25.4 1 34 32.5h39.5c0.3 1.2 1.4 2.2 2.7 2.2v5c0 1.3 1 2.3 2.3 2.3h46.1c1.3 0 2.3-1 2.3-2.3v-16c0-1.3-1-2.3-2.3-2.3h-46.1c-1.3 0-2.3 1-2.3 2.3v5c-1.5 0.1-2.7 1.2-2.8 2.7h-38.4v-31.5h38.5c0.3 1.2 1.4 2.2 2.7 2.2v5c0 1.3 1 2.3 2.3 2.3h46.1c1.3 0 2.3-1 2.3-2.3v-16c0-1.3-1-2.3-2.3-2.3h-46.1c-1.3 0-2.3 1-2.3 2.3v5c-1.5 0.1-2.7 1.2-2.8 2.7h-38.4v-33h38.4c0.1 1.5 1.3 2.7 2.8 2.7v5c0 1.3 1 2.3 2.3 2.3h46.1c1.3 0 2.3-1 2.3-2.3v-16c0-1.3-1-2.3-2.3-2.3h-46.1c-1.3 0-2.3 1-2.3 2.3v5c-1.3 0.1-2.4 1-2.7 2.2h-38.5v-25.4V110h38.5c0.3 1.3 1.4 2.2 2.7 2.3v5c0 1.3 1 2.3 2.3 2.3h46.1c1.3 0 2.3-1 2.3-2.3v-16c0-1.3-1-2.3-2.3-2.3h-46.1c-1.3 0-2.3 1-2.3 2.3v5c-1.5 0.1-2.7 1.2-2.8 2.7h-38.4V86.1h22.3c1.3 0 2.3-1 2.3-2.3V76h13.7c0.2 1.4 1.3 2.6 2.8 2.6v5.1C318.1 85.1 319.1 86.1 320.4 86.1zM254.8 36h42.7v12.7h-42.7V36zM322.1 202.3h42.7V215h-42.7V202.3zM322.1 169.8h42.7v12.7h-42.7V169.8zM322.1 136.4h42.7V149h-42.7V136.4zM322.1 102.9h42.7v12.7h-42.7V102.9zM297.5 82.1h-42.7V69.5h42.7V82.1zM322.1 69.5h42.7v12.7h-42.7V69.5z"/>
</svg>