<svg xmlns="http://www.w3.org/2000/svg" version="1.1" x="0" y="0" width="460" height="265" viewBox="0 0 460 265" enable-background="new 0 0 460 265" xml:space="preserve">
	<path fill="#387ACC" d="M404.7 13.9H55.3c-0.7 0-1.2 0.5-1.2 1.2v218.5c0 0.7 0.5 1.2 1.2 1.2h349.5c0.7 0 1.2-0.5 1.2-1.2V15.1C405.9 14.4 405.4 13.9 404.7 13.9zM404.7 233.6H55.3V15.1h349.5V233.6zM459.3 250.2h-42.5c0.5-1.4 0.8-2.9 0.8-4.5V13.9c0-7.7-6.3-13.9-14-13.9H56.5c-7.7 0-14 6.3-14 13.9v231.8c0 1.6 0.3 3.1 0.8 4.5H0.7c-0.4 0-0.7 0.3-0.7 0.7v7.1c0 0.2 0 0.8 0.5 1.2 0.1 0.1 0.3 0.2 0.4 0.3 0 0 0 0 0 0 3.2 2.2 11.1 5.4 20 5.4H439c8.9 0 16.9-3.2 20-5.4h0c0.2-0.1 0.4-0.3 0.5-0.4 0.4-0.3 0.4-0.8 0.4-1V251C460 250.6 459.7 250.2 459.3 250.2zM43.5 13.9c0-7.2 5.8-13 13-13h347.1c7.2 0 13 5.8 13 13v231.8c0 1.6-0.3 3.1-0.8 4.5h-38l0-0.2 -1.1-5h33.9c2.7 0 4.8-2.2 4.8-4.8v-22.6 -1.2V13.8c0-6.4-5.2-11.5-11.5-11.5H56.3c-6.4 0-11.5 5.2-11.5 11.5v202.6 1.2 22.6c0 2.7 2.2 4.8 4.8 4.8h32.8l-1.1 5 0 0.2H44.3c-0.5-1.4-0.8-2.9-0.8-4.5V13.9zM197.5 250.2h-47.6 -15.1H82.2l1.2-5.2h51.4 15.1 225.7l1.2 5.2H262.5 197.5zM261.5 251.2c-0.3 1.6-1.8 4.2-4.5 4.2h-54c-2.7 0-4.2-2.7-4.5-4.2H261.5zM49.6 244c-2.1 0-3.9-1.7-3.9-3.9v-22.6 -1.2V13.8c0-5.8 4.7-10.6 10.6-10.6h347.4c5.8 0 10.6 4.7 10.6 10.6v202.6 1.2 22.6c0 2.1-1.7 3.9-3.9 3.9H49.6zM439 264H21c-7.5 0-14.4-2.4-18-4.4h454.1C453.4 261.7 446.6 264 439 264zM459 258.2c0 0.1 0 0.2 0 0.2 -0.1 0.1-0.2 0.2-0.3 0.3H1.4c-0.1-0.1-0.2-0.1-0.3-0.2C1 258.4 1 258.4 1 258.1v-6.9h80 1.2 52.5 15.1 47.7c0.3 2 2.2 5.2 5.5 5.2h54c3.3 0 5.2-3.2 5.5-5.2h114.2 1.2H459V258.2z"/>
	<path id="bells" fill="#387ACC" d="M324.2 176.4c-1.1 0-2.1-0.9-2.1-2.1v-5.1c0-2.7-1.8-5-4.2-5.7 0 0 0-0.1 0-0.1 0-0.9-0.7-1.7-1.6-1.7 -0.9 0-1.6 0.7-1.6 1.7 0 0 0 0.1 0 0.1 -2.4 0.7-4.3 3-4.3 5.7v5.1c0 1.2-0.9 2.1-2.1 2.1h-0.2v0.8h16.5v-0.8H324.2zM318.7 179.3c0 1.3-1 2.4-2.3 2.4 -1.3 0-2.3-1.1-2.3-2.4H318.7zM324.2 59.9c-1.1 0-2.1-0.9-2.1-2.1v-5.1c0-2.7-1.8-5-4.2-5.7 0 0 0-0.1 0-0.1 0-0.9-0.7-1.7-1.6-1.7 -0.9 0-1.6 0.7-1.6 1.7 0 0 0 0.1 0 0.1 -2.4 0.7-4.3 3-4.3 5.7v5.1c0 1.2-0.9 2.1-2.1 2.1h-0.2v0.8h16.5v-0.8H324.2zM318.7 62.8c0 1.3-1 2.4-2.3 2.4 -1.3 0-2.3-1.1-2.3-2.4H318.7zM321.8 105.7H128.9c-2.1 0-4 1.2-4 3.3v33.8c0 2.1 1.9 3.8 4 3.8h192.8c2.1 0 4.2-1.7 4.2-3.8V109C325.9 106.9 323.9 105.7 321.8 105.7zM318.9 139.7h-187v-28h187V139.7zM316.1 152.7c-7.6 0-14.2 4.5-17.2 11h-170c-2.1 0-4 1.7-4 3.8v33.8c0 2.1 1.9 4.3 4 4.3h192.8c2.1 0 4.2-2.2 4.2-4.3v-13.4c5.5-3.3 9.2-9.3 9.2-16.2C335.1 161.2 326.6 152.7 316.1 152.7zM318.9 198.7h-187v-28h165.2c0 0.3-0.1 0.7-0.1 1 0 10.5 8.5 19 19 19 1 0 1.9-0.1 2.8-0.2V198.7zM316.1 188.7c-9.4 0-17-7.6-17-17s7.6-17 17-17 17 7.6 17 17S325.5 188.7 316.1 188.7zM316.1 36.2c-7 0-13.2 3.8-16.4 9.5H128.9c-2.1 0-4 1.7-4 3.8v33.8c0 2.1 1.9 4.3 4 4.3h192.8c2.1 0 4.2-2.2 4.2-4.3V71.4c5.5-3.3 9.2-9.3 9.2-16.2C335.1 44.7 326.6 36.2 316.1 36.2zM318.9 80.7h-187v-28h165.4c-0.1 0.8-0.2 1.7-0.2 2.5 0 10.5 8.5 19 19 19 1 0 1.9-0.1 2.8-0.2V80.7zM316.1 72.2c-9.4 0-17-7.6-17-17 0-9.4 7.6-17 17-17s17 7.6 17 17C333.1 64.5 325.5 72.2 316.1 72.2z"/>
</svg>