<svg xmlns="http://www.w3.org/2000/svg" width="460" height="265" x="0" y="0" enable-background="new 0 0 460 265" version="1.1" viewBox="0 0 460 265" xml:space="preserve"><path fill="#FC7B5C" d="M404.7 13.9H55.3c-0.7 0-1.2 0.5-1.2 1.2v218.5c0 0.7 0.5 1.2 1.2 1.2h349.5c0.7 0 1.2-0.5 1.2-1.2V15.1C405.9 14.4 405.4 13.9 404.7 13.9zM404.7 233.6H55.3V15.1h349.5V233.6zM459.3 250.2h-42.5c0.5-1.4 0.8-2.9 0.8-4.5V13.9c0-7.7-6.3-13.9-14-13.9H56.5c-7.7 0-14 6.3-14 13.9v231.8c0 1.6 0.3 3.1 0.8 4.5H0.7c-0.4 0-0.7 0.3-0.7 0.7v7.1c0 0.2 0 0.8 0.5 1.2 0.1 0.1 0.3 0.2 0.4 0.3 0 0 0 0 0 0 3.2 2.2 11.1 5.4 20 5.4H439c8.9 0 16.9-3.2 20-5.4h0c0.2-0.1 0.4-0.3 0.5-0.4 0.4-0.3 0.4-0.8 0.4-1V251C460 250.6 459.7 250.2 459.3 250.2zM43.5 13.9c0-7.2 5.8-13 13-13h347.1c7.2 0 13 5.8 13 13v231.8c0 1.6-0.3 3.1-0.8 4.5h-38l0-0.2 -1.1-5h33.9c2.7 0 4.8-2.2 4.8-4.8v-22.6 -1.2V13.8c0-6.4-5.2-11.5-11.5-11.5H56.3c-6.4 0-11.5 5.2-11.5 11.5v202.6 1.2 22.6c0 2.7 2.2 4.8 4.8 4.8h32.8l-1.1 5 0 0.2H44.3c-0.5-1.4-0.8-2.9-0.8-4.5V13.9zM197.5 250.2h-47.6 -15.1H82.2l1.2-5.2h51.4 15.1 225.7l1.2 5.2H262.5 197.5zM261.5 251.2c-0.3 1.6-1.8 4.2-4.5 4.2h-54c-2.7 0-4.2-2.7-4.5-4.2H261.5zM49.6 244c-2.1 0-3.9-1.7-3.9-3.9v-22.6 -1.2V13.8c0-5.8 4.7-10.6 10.6-10.6h347.4c5.8 0 10.6 4.7 10.6 10.6v202.6 1.2 22.6c0 2.1-1.7 3.9-3.9 3.9H49.6zM439 264H21c-7.5 0-14.4-2.4-18-4.4h454.1C453.4 261.7 446.6 264 439 264zM459 258.2c0 0.1 0 0.2 0 0.2 -0.1 0.1-0.2 0.2-0.3 0.3H1.4c-0.1-0.1-0.2-0.1-0.3-0.2C1 258.4 1 258.4 1 258.1v-6.9h80 1.2 52.5 15.1 47.7c0.3 2 2.2 5.2 5.5 5.2h54c3.3 0 5.2-3.2 5.5-5.2h114.2 1.2H459V258.2z"/><path id="difference" fill="#387ACC" d="M204.6 46.9C204.6 46.9 204.6 46.9 204.6 46.9l0 4.6c0 1.3 1 2.3 2.3 2.3h46c1.3 0 2.3-1 2.3-2.3v-16c0-1.3-1-2.3-2.3-2.3h-46c-1.3 0-2.3 1-2.3 2.3v5.4c0 0 0 0 0 0 -1.4 0-2.6 1-2.9 2.3h-74.4v34h1v-33h73.4C201.8 45.7 203.1 46.9 204.6 46.9zM208.6 37.2h42.7v12.7h-42.7V37.2zM387.4 133.5h-46c-1.3 0-2.3 1-2.3 2.3v5c-0.1 0-0.1 0-0.2 0 -1.4 0-2.6 1-2.9 2.2h-6.6v-32 -1h-1 -73.1v-7.7c0-1.3-1-2.3-2.3-2.3h-46c-1.3 0-2.3 1-2.3 2.3v5.4c0 0 0 0 0 0 -1.4 0-2.6 1-2.9 2.3h-6.4v-33h6.3c0.1 1.5 1.4 2.8 3 2.8 0 0 0 0 0 0v5c0 1.3 1 2.3 2.3 2.3h46c1.3 0 2.3-1 2.3-2.3v-16c0-1.3-1-2.3-2.3-2.3h-46c-1.3 0-2.3 1-2.3 2.3v5c0 0 0 0 0 0 -1.4 0-2.5 0.9-2.9 2.2h-7.4v34 34h1v-33h6.3c0.2 1.5 1.4 2.7 3 2.7 0 0 0 0 0 0v4.6c0 1.3 1 2.3 2.3 2.3h46c1.3 0 2.3-1 2.3-2.3v-7.3h73.1v33h7.5c0.1 1.5 1.4 2.8 3 2.8 0.1 0 0.1 0 0.2 0v5c0 1.3 1 2.3 2.3 2.3h46c1.3 0 2.3-1 2.3-2.3v-16C389.7 134.6 388.7 133.5 387.4 133.5zM208.6 70.6h42.7v12.7h-42.7V70.6zM251.3 116.7h-42.7v-12.7h42.7V116.7zM385.7 150.2h-42.7v-12.7h42.7V150.2z"/><path fill="#387ACC" d="M387.4 167h-46c-1.3 0-2.3 1-2.3 2.3v5c-0.1 0-0.2 0-0.4 0 -1.6 0-2.8 1.2-3 2.7h-13.2v-7.7c0-1.3-1-2.3-2.3-2.3h-46c-1.3 0-2.3 1-2.3 2.3v5c-0.1 0-0.1 0-0.2 0 -1.6 0-2.8 1.2-3 2.7h-13.3v-7.7c0-1.3-1-2.3-2.3-2.3h-46c-1.3 0-2.3 1-2.3 2.3v5.4c0 0 0 0 0 0 -1.4 0-2.6 1-2.9 2.3h-13.6v-7.7c0-1.3-1-2.3-2.3-2.3h-46c-1.3 0-2.3 1-2.3 2.3v5c-1.5 0.1-2.7 1.2-2.8 2.7H96.3v-33h38.3c0.1 1.5 1.3 2.7 2.8 2.7v5c0 1.3 1 2.3 2.3 2.3h46c1.3 0 2.3-1 2.3-2.3v-7.8h13.5c0.1 1.5 1.4 2.8 3 2.8 0 0 0 0 0 0v5c0 1.3 1 2.3 2.3 2.3h46c1.3 0 2.3-1 2.3-2.3v-16c0-1.3-1-2.3-2.3-2.3h-46c-1.3 0-2.3 1-2.3 2.3v5c0 0 0 0 0 0 -1.4 0-2.6 1-2.9 2.2h-13.6v-7.2c0-1.3-1-2.3-2.3-2.3h-46c-1.3 0-2.3 1-2.3 2.3v5c-1.3 0.1-2.4 1-2.7 2.2H96.3v-32h38.4c0.3 1.3 1.4 2.2 2.7 2.3v5c0 1.3 1 2.3 2.3 2.3h46c1.3 0 2.3-1 2.3-2.3v-16c0-1.3-1-2.3-2.3-2.3h-46c-1.3 0-2.3 1-2.3 2.3v5c-1.5 0.1-2.7 1.2-2.8 2.7H96.3V87.3h22.3c1.3 0 2.3-1 2.3-2.3v-7.8h13.7c0.2 1.4 1.3 2.6 2.8 2.6V85c0 1.3 1 2.3 2.3 2.3h46c1.3 0 2.3-1 2.3-2.3V69c0-1.3-1-2.3-2.3-2.3h-46c-1.3 0-2.3 1-2.3 2.3v4.9c-1.4 0.1-2.5 1-2.8 2.3h-13.8V69c0-1.3-1-2.3-2.3-2.3h-20c-0.1-1.3-1-2.4-2.3-2.7V53.8h22.3c1.3 0 2.3-1 2.3-2.3v-16c0-1.3-1-2.3-2.3-2.3h-46c-1.3 0-2.3 1-2.3 2.3v16c0 1.3 1 2.3 2.3 2.3h22.7v10.1c-1.4 0.1-2.6 1.3-2.7 2.7h-20c-1.3 0-2.3 1-2.3 2.3v16c0 1.3 1 2.3 2.3 2.3h22.7v55.9 1 34h39.4c0.3 1.2 1.4 2.2 2.7 2.2v5c0 1.3 1 2.3 2.3 2.3h46c1.3 0 2.3-1 2.3-2.3v-7.3h6.2v34h7.6c0.5 1 1.5 1.7 2.7 1.7 0 0 0 0 0 0v5c0 1.3 1 2.3 2.3 2.3h46c1.3 0 2.3-1 2.3-2.3v-16c0-1.3-1-2.3-2.3-2.3h-46c-1.3 0-2.3 1-2.3 2.3v5c0 0 0 0 0 0 -1.7 0-3 1.3-3 3 0 0.1 0 0.2 0 0.2h-6.3v-33h6.3c0.2 1.5 1.4 2.7 3 2.7 0 0 0 0 0 0v4.6c0 1.3 1 2.3 2.3 2.3h46c1.3 0 2.3-1 2.3-2.3v-7.3h7v34h6.6c0.5 1 1.5 1.7 2.7 1.7 0.1 0 0.1 0 0.2 0v5c0 1.3 1 2.3 2.3 2.3h46c1.3 0 2.3-1 2.3-2.3v-16c0-1.3-1-2.3-2.3-2.3h-46c-1.3 0-2.3 1-2.3 2.3v5c-0.1 0-0.1 0-0.2 0 -1.7 0-3 1.3-3 3 0 0.1 0 0.2 0 0.2h-5.3v-33h5.4c0.3 1.3 1.5 2.3 2.9 2.3 0.1 0 0.1 0 0.2 0v5c0 1.3 1 2.3 2.3 2.3h46c1.3 0 2.3-1 2.3-2.3v-7.3h13.2c0.3 1.3 1.5 2.3 2.9 2.3 0.1 0 0.3 0 0.4 0v5c0 1.3 1 2.3 2.3 2.3h46c1.3 0 2.3-1 2.3-2.3v-16C389.7 168.1 388.7 167 387.4 167zM208.7 137.6h42.7v12.7h-42.7V137.6zM141.5 137.6h42.7v12.7h-42.7V137.6zM141.5 104.1h42.7v12.7h-42.7V104.1zM141.5 70.6h42.7v12.7h-42.7V70.6zM74.3 37.2h42.7v12.7H74.3V37.2zM74.3 70.6h42.7v12.7H74.3V70.6zM184.1 183.7h-42.7V171h42.7V183.7zM208.7 204.5h42.7v12.7h-42.7V204.5zM251.3 183.7h-42.7V171h42.7V183.7zM275.9 204.5h42.7v12.7h-42.7V204.5zM318.5 183.7h-42.7V171h42.7V183.7zM385.7 183.7h-42.7V171h42.7V183.7zM341.4 53.8h46c1.3 0 2.3-1 2.3-2.3v-16c0-1.3-1-2.3-2.3-2.3h-46c-1.3 0-2.3 1-2.3 2.3v5.4c-0.1 0-0.2 0-0.4 0 -1.4 0-2.6 1-2.9 2.3h-13.2v-7.7c0-1.3-1-2.3-2.3-2.3h-46c-1.3 0-2.3 1-2.3 2.3v5.4c-0.1 0-0.1 0-0.2 0 -1.4 0-2.6 1-2.9 2.3h-13.4v1h13.3c0.2 1.5 1.4 2.7 3 2.7 0.1 0 0.1 0 0.2 0v4.6c0 1.3 1 2.3 2.3 2.3h46c1.3 0 2.3-1 2.3-2.3v-7.3h5.7v67l0.1-0.1v0.1h7.3c0.2 1.5 1.4 2.7 3 2.7 0.1 0 0.3 0 0.4 0v4.6c0 1.3 1 2.3 2.3 2.3h46c1.3 0 2.3-1 2.3-2.3v-16c0-1.3-1-2.3-2.3-2.3h-46c-1.3 0-2.3 1-2.3 2.3v5.4c-0.1 0-0.2 0-0.4 0 -1.4 0-2.6 1-2.9 2.3h-6.5v-33h6.5c0.2 1.5 1.4 2.7 3 2.7 0.1 0 0.3 0 0.4 0V85c0 1.3 1 2.3 2.3 2.3h46c1.3 0 2.3-1 2.3-2.3V69c0-1.3-1-2.3-2.3-2.3h-46c-1.3 0-2.3 1-2.3 2.3v4.9c-0.1 0-0.2 0-0.4 0 -1.4 0-2.6 1-2.9 2.3h-6.5v-32h6.5c0.2 1.5 1.4 2.7 3 2.7 0.1 0 0.3 0 0.4 0v4.7C339.1 52.8 340.1 53.8 341.4 53.8zM318.5 49.8h-42.7V37.2h42.7V49.8zM343.1 104.1h42.7v12.7h-42.7V104.1zM343.1 70.6h42.7v12.7h-42.7V70.6zM343.1 37.2h42.7v12.7h-42.7V37.2z"/></svg>