<svg xmlns="http://www.w3.org/2000/svg" xmlns:xlink="http://www.w3.org/1999/xlink" id="Layer_1" width="82.5" height="82.5" x="0" y="0" enable-background="new -918 499.5 82.5 82.5" version="1.1" viewBox="-918 499.5 82.5 82.5" xml:space="preserve"><rect width="2363.9" height="1844.4" x="-1849.6" y="917.5" fill="#8C3A3A" display="none"/><image width="1632" height="918" display="none" enable-background="new" overflow="visible" transform="matrix(0.9998 2.021391e-02 -2.021391e-02 0.9998 -702.3667 471.2692)"/><path fill="none" stroke="#000" stroke-miterlimit="10" stroke-width="4" d="M-233.9 653.4c0 0 6.1-8.5 14.8-8.5s11.5 6 22 6 18.4-10.7 18.4-10.7" display="none"/><path fill="none" stroke="#000" stroke-miterlimit="10" d="M-233.9 653.4c0 0 6.1-8.5 14.8-8.5s11.5 6 22 6 18.4-11.7 18.4-11.7" display="none"/><path fill="#3E365D" d="M-1800.1 966c-0.3-1.4-0.5-2.8-0.5-4.1v-27.8h-5.8v22.4c0 0.7-0.1 1.4-0.2 2 -0.2 0.6-0.3 1.2-0.6 1.7 -0.8 1.9-2.3 3.5-4.2 4.9 -1.9 1.3-4.1 2-6.6 2 -1.8 0-3.3-0.3-4.5-0.9 -1.2-0.6-2.2-1.5-2.9-2.5 -0.8-1.1-1.3-2.5-1.7-4 -0.4-1.6-0.5-3.5-0.5-5.4v-20.1h-5.8v20.9c0 3.9 0.5 7.1 1.6 9.4 1.1 2.3 2.4 4.1 3.9 5.3 1.6 1.2 3.2 2 4.8 2.3s2.9 0.5 4 0.5c1.9 0 3.6-0.3 5.2-0.7 1.6-0.5 3-1.2 4.2-2s2.3-1.7 3.2-2.8c0.2-0.3 0.5-0.5 0.7-0.8 0.1 0.5 0.2 1.1 0.3 1.6 0.2 0.8 0.6 2.1 1.1 3.8l0.3 0.9 5.6-1.2 -0.5-1.2C-1799.4 968.8-1799.8 967.5-1800.1 966z" display="none"/><rect width="649.3" height="232.7" x="-673.7" y="434.7" fill="#2570C3" display="none"/><circle cx="-876.7" cy="540.7" r="40" fill="none" stroke="#FFF" stroke-miterlimit="10" stroke-width="2.5"/><g display="none"><path fill="#FFF" d="M-865.4 548.6c0 2.5-0.9 4.5-2.8 6.1 -1.8 1.6-4.4 2.6-7.7 3v6.6h-2.3v-6.5c-1.7 0-3.6-0.2-5.6-0.6 -2-0.4-3.6-0.9-4.8-1.4v-2.9c1.4 0.7 3.1 1.2 5 1.7 1.9 0.5 3.8 0.7 5.4 0.7V541c-2.7-0.8-4.7-1.6-6-2.5 -1.3-0.8-2.3-1.8-2.9-2.9 -0.6-1.1-0.9-2.5-0.9-4.1 0-2.3 0.9-4.3 2.6-5.8 1.8-1.6 4.1-2.6 7.1-2.9v-5.4h2.3v5.3c3.7 0.2 7 0.8 9.8 2l-0.9 2.5c-2.6-1.2-5.6-1.8-8.9-2v13.6c4 1.2 6.7 2.6 8.2 4C-866.1 544.3-865.4 546.2-865.4 548.6zM-884.8 531.5c0 1.6 0.5 2.9 1.6 3.9 1.1 1 2.8 1.9 5.1 2.6v-12.6c-2.2 0.3-3.9 1-5 2.1C-884.2 528.6-884.8 530-884.8 531.5zM-868.5 548.5c0-1.6-0.6-2.9-1.8-3.9s-3-1.9-5.6-2.7v13.2c2.3-0.2 4.1-0.9 5.4-2.1C-869.1 551.8-868.5 550.3-868.5 548.5z" display="inline"/></g><rect width="17.2" height="19.3" x="-868.4" y="522.8" fill="none" stroke="#FF0" stroke-miterlimit="10" display="none" transform="matrix(-0.9271 -0.3748 0.3748 -0.9271 -1856.495 703.8358)"/><rect width="14.6" height="23.2" x="-903.1" y="537.2" fill="#FF0" display="none"/><path fill="#FFF" d="M-872.7 539.8c-1.1-0.4-2.2-0.7-3.2-0.9v-14.4c3.2 0.2 6.2 1 8.9 2.4l1.4-2.7c-3.1-1.6-6.7-2.5-10.3-2.7v-4.2h-3v4.3c-5.4 0.8-9.5 5-9.5 10 0 2.7 1.2 5.4 3.4 7.2 1.9 1.6 4 2.2 6.1 2.6V556c-3.2-0.3-6.2-1.2-8.9-2.7l-1.5 2.6c3.1 1.8 6.7 2.8 10.4 3v5.2h3V559c5.7-0.5 10.1-4.9 10.1-10.1C-865.8 545-868.5 541.4-872.7 539.8zM-883.1 536.6c-1.5-1.3-2.4-3.1-2.4-5 0-3.4 2.8-6.3 6.5-7v13.7C-880.5 538.1-881.9 537.6-883.1 536.6zM-876 556v-14c0.7 0.2 1.5 0.3 2.2 0.6 3.1 1.2 5 3.6 5 6.4C-868.8 552.5-872 555.5-876 556z"/></svg>