<svg xmlns="http://www.w3.org/2000/svg" xmlns:xlink="http://www.w3.org/1999/xlink" version="1.1" id="Layer_1" x="0" y="0" width="82.5" height="82.5" viewBox="-918 499.5 82.5 82.5" enable-background="new -918 499.5 82.5 82.5" xml:space="preserve">
  <rect x="-1482" y="833.8" display="none" fill="#8C3A3A" width="2363.9" height="1844.4"/>
  <title>
    Layer 1
  </title>
  <title>
    Layer 1
  </title>
  <image display="none" overflow="visible" enable-background="new    " width="1632" height="918" transform="matrix(0.9998 2.021391e-02 -2.021391e-02 0.9998 -334.7944 387.5303)"/>
  <path display="none" fill="none" stroke="#000000" stroke-width="4" stroke-miterlimit="10" d="M133.7 569.7c0 0 6.1-8.5 14.8-8.5 8.7 0 11.5 6 22 6s18.4-10.7 18.4-10.7"/>
  <path display="none" fill="none" stroke="#000000" stroke-miterlimit="10" d="M133.7 569.7c0 0 6.1-8.5 14.8-8.5 8.7 0 11.5 6 22 6s18.4-11.7 18.4-11.7"/>
  <path display="none" fill="#3E365D" d="M-1432.5 882.3c-0.3-1.4-0.5-2.8-0.5-4.1v-27.8h-5.8v22.5c0 0.7-0.1 1.4-0.2 2 -0.2 0.6-0.3 1.2-0.6 1.7 -0.8 1.9-2.3 3.5-4.2 4.9 -1.9 1.3-4.1 2-6.6 2 -1.8 0-3.3-0.3-4.5-0.9 -1.2-0.6-2.2-1.5-2.9-2.5 -0.8-1.1-1.3-2.5-1.7-4 -0.4-1.6-0.5-3.5-0.5-5.4v-20.1h-5.8v20.9c0 3.9 0.5 7.1 1.6 9.4 1.1 2.3 2.4 4.1 3.9 5.3 1.6 1.2 3.2 2 4.8 2.3 1.6 0.3 2.9 0.5 4 0.5 1.9 0 3.6-0.3 5.2-0.7 1.6-0.5 3-1.2 4.2-2 1.2-0.8 2.3-1.7 3.2-2.8 0.2-0.3 0.5-0.5 0.7-0.8 0.1 0.5 0.2 1.1 0.3 1.6 0.2 0.8 0.6 2.1 1.1 3.8l0.3 0.9 5.6-1.2 -0.5-1.2C-1431.8 885-1432.2 883.7-1432.5 882.3z"/>
  <rect x="-306.2" y="351" display="none" fill="#2570C3" width="649.3" height="232.7"/>
  <circle fill="none" stroke="#FFFFFF" stroke-width="2.5" stroke-miterlimit="10" cx="-876.8" cy="540.7" r="40"/>
  <circle fill="none" stroke="#FFFFFF" stroke-width="2.5" stroke-miterlimit="10" cx="-883" cy="534.6" r="14.3"/>
  <circle fill="none" stroke="#FFFFFF" stroke-width="2.5" stroke-miterlimit="10" cx="-883" cy="534.6" r="9.1"/>
  <path fill="none" stroke="#FFFFFF" stroke-width="2.5" stroke-miterlimit="10" d="M-857 558.7l-1.7 1.7c-1 1-2.6 1-3.6 0l-11.4-11.3c-1-1-1-2.6 0-3.6l1.7-1.7c1-1 2.6-1 3.6 0l11.4 11.3C-856 556.1-856 557.7-857 558.7z"/>
</svg>
