<svg xmlns="http://www.w3.org/2000/svg" xmlns:xlink="http://www.w3.org/1999/xlink" id="Layer_1" width="82.5" height="82.5" x="0" y="0" enable-background="new -918 499.5 82.5 82.5" version="1.1" viewBox="-918 499.5 82.5 82.5" xml:space="preserve"><rect width="2363.9" height="1844.4" x="-2501.8" y="917.5" fill="#8C3A3A" display="none"/><title>Layer 1</title><title>Layer 1</title><image width="1632" height="918" display="none" enable-background="new" overflow="visible" transform="matrix(0.9998 2.021391e-02 -2.021391e-02 0.9998 -1354.5458 471.2692)"/><path fill="none" stroke="#000" stroke-miterlimit="10" stroke-width="4" d="M-886.1 653.4c0 0 6.1-8.5 14.8-8.5s11.5 6 22 6 18.3-10.7 18.3-10.7" display="none"/><path fill="none" stroke="#000" stroke-miterlimit="10" d="M-886.1 653.4c0 0 6.1-8.5 14.8-8.5s11.5 6 22 6 18.3-11.7 18.3-11.7" display="none"/><path fill="#3E365D" d="M-2452.3 966c-0.3-1.4-0.5-2.8-0.5-4.1v-27.8h-5.8v22.4c0 0.7-0.1 1.4-0.2 2 -0.2 0.6-0.3 1.2-0.6 1.7 -0.8 1.9-2.3 3.5-4.2 4.9 -1.9 1.3-4.1 2-6.6 2 -1.8 0-3.3-0.3-4.5-0.9s-2.2-1.5-2.9-2.5c-0.8-1.1-1.3-2.5-1.7-4 -0.4-1.6-0.5-3.5-0.5-5.4v-20.1h-5.8v20.9c0 3.9 0.5 7.1 1.6 9.4s2.4 4.1 3.9 5.3c1.6 1.2 3.2 2 4.8 2.3 1.6 0.3 2.9 0.5 4 0.5 1.9 0 3.6-0.3 5.2-0.7 1.6-0.5 3-1.2 4.2-2 1.2-0.8 2.3-1.7 3.2-2.8 0.2-0.3 0.5-0.5 0.7-0.8 0.1 0.5 0.2 1.1 0.3 1.6 0.2 0.8 0.6 2.1 1.1 3.8l0.3 0.9 5.6-1.2 -0.5-1.2C-2451.6 968.8-2452 967.5-2452.3 966z" display="none"/><rect width="649.3" height="232.7" x="-1325.9" y="434.7" fill="#2570C3" display="none"/><circle cx="-876.8" cy="540.7" r="40" fill="none" stroke="#FFF" stroke-miterlimit="10" stroke-width="2.5"/><path fill="none" stroke="#FFF" stroke-miterlimit="10" stroke-width="2.5" d="M-862.8 560.2h-26.8c-1.6 0-2.8-1.3-2.8-2.8v-22.3c0-1.6 1.3-2.8 2.8-2.8h26.8c1.6 0 2.8 1.3 2.8 2.8v22.3C-859.9 559-861.2 560.2-862.8 560.2z"/><path fill="none" stroke="#FFF" stroke-miterlimit="10" stroke-width="2.5" d="M-886.7 532.2c0-11.3 4.7-16 10.5-16s10.5 4.8 10.5 16H-886.7z"/><path fill="none" stroke="#FFF" stroke-linecap="round" stroke-linejoin="round" stroke-miterlimit="10" stroke-width="2.5" d="M-872.8 543.7c0-1.8-1.5-3.3-3.3-3.3 -1.8 0-3.3 1.5-3.3 3.3 0 1.3 0.7 2.4 1.8 3 0 0.1 0 0.2 0 0.2v3.5c0 0.8 0.7 1.5 1.5 1.5 0.8 0 1.5-0.7 1.5-1.5v-3.5c0-0.1 0-0.2 0-0.2C-873.6 546.1-872.8 545-872.8 543.7z"/></svg>