<?xml version="1.0" encoding="utf-8"?>
<!-- Generator: Adobe Illustrator 18.1.1, SVG Export Plug-In . SVG Version: 6.00 Build 0)  -->
<svg version="1.1" id="Layer_1" xmlns="http://www.w3.org/2000/svg" xmlns:xlink="http://www.w3.org/1999/xlink" x="0px" y="0px"
	 width="460px" height="265px" viewBox="0 0 460 265" enable-background="new 0 0 460 265" xml:space="preserve">
<path fill="#FC7B5C" d="M404.7,13.9H55.3c-0.7,0-1.2,0.5-1.2,1.2v218.5c0,0.7,0.5,1.2,1.2,1.2h349.5c0.7,0,1.2-0.5,1.2-1.2V15.1
	C405.9,14.4,405.4,13.9,404.7,13.9z M404.7,233.6H55.3V15.1h349.5V233.6z M459.3,250.2h-42.5c0.5-1.4,0.8-2.9,0.8-4.5V13.9
	c0-7.7-6.3-13.9-14-13.9H56.5c-7.7,0-14,6.3-14,13.9v231.8c0,1.6,0.3,3.1,0.8,4.5H0.7c-0.4,0-0.7,0.3-0.7,0.7v7.1
	c0,0.2,0,0.8,0.5,1.2c0.1,0.1,0.3,0.2,0.4,0.3c0,0,0,0,0,0c3.2,2.2,11.1,5.4,20,5.4H439c8.9,0,16.9-3.2,20-5.4h0
	c0.2-0.1,0.4-0.3,0.5-0.4c0.4-0.3,0.4-0.8,0.4-1V251C460,250.6,459.7,250.2,459.3,250.2z M43.5,13.9c0-7.2,5.8-13,13-13h347.1
	c7.2,0,13,5.8,13,13v231.8c0,1.6-0.3,3.1-0.8,4.5h-38l0-0.2l-1.1-5h33.9c2.7,0,4.8-2.2,4.8-4.8v-22.6v-1.2V13.8
	c0-6.4-5.2-11.5-11.5-11.5H56.3c-6.4,0-11.5,5.2-11.5,11.5v202.6v1.2v22.6c0,2.7,2.2,4.8,4.8,4.8h32.8l-1.1,5l0,0.2H44.3
	c-0.5-1.4-0.8-2.9-0.8-4.5V13.9z M197.5,250.2h-47.6h-15.1H82.2l1.2-5.2h51.4h15.1h225.7l1.2,5.2H262.5H197.5z M261.5,251.2
	c-0.3,1.6-1.8,4.2-4.5,4.2h-54c-2.7,0-4.2-2.7-4.5-4.2H261.5z M49.6,244c-2.1,0-3.9-1.7-3.9-3.9v-22.6v-1.2V13.8
	c0-5.8,4.7-10.6,10.6-10.6h347.4c5.8,0,10.6,4.7,10.6,10.6v202.6v1.2v22.6c0,2.1-1.7,3.9-3.9,3.9H49.6z M439,264H21
	c-7.5,0-14.4-2.4-18-4.4h454.1C453.4,261.7,446.6,264,439,264z M459,258.2c0,0.1,0,0.2,0,0.2c-0.1,0.1-0.2,0.2-0.3,0.3H1.4
	c-0.1-0.1-0.2-0.1-0.3-0.2C1,258.4,1,258.4,1,258.1v-6.9h80h1.2h52.5h15.1h47.7c0.3,2,2.2,5.2,5.5,5.2h54c3.3,0,5.2-3.2,5.5-5.2
	h114.2h1.2H459V258.2z"/>
<g>
	<g>
		<path fill="#E6DE5B" d="M204.6,46.9C204.6,46.9,204.6,46.9,204.6,46.9l0,4.6c0,1.3,1,2.3,2.3,2.3h46c1.3,0,2.3-1,2.3-2.3v-16
			c0-1.3-1-2.3-2.3-2.3h-46c-1.3,0-2.3,1-2.3,2.3v5.4c0,0,0,0,0,0c-1.4,0-2.6,1-2.9,2.3h-74.4v34h1v-33h73.4
			C201.8,45.7,203.1,46.9,204.6,46.9z M208.6,37.2h42.7v12.7h-42.7V37.2z"/>
		<path fill="#E6DE5B" d="M387.4,133.5h-46c-1.3,0-2.3,1-2.3,2.3v5c-0.1,0-0.1,0-0.2,0c-1.4,0-2.6,1-2.9,2.2h-6.6v-32v-1h-1h-73.1
			v-7.7c0-1.3-1-2.3-2.3-2.3h-46c-1.3,0-2.3,1-2.3,2.3v5.4c0,0,0,0,0,0c-1.4,0-2.6,1-2.9,2.3h-6.4v-33h6.3c0.1,1.5,1.4,2.8,3,2.8
			c0,0,0,0,0,0v5c0,1.3,1,2.3,2.3,2.3h46c1.3,0,2.3-1,2.3-2.3v-16c0-1.3-1-2.3-2.3-2.3h-46c-1.3,0-2.3,1-2.3,2.3v5c0,0,0,0,0,0
			c-1.4,0-2.5,0.9-2.9,2.2h-7.4v34v34h1v-33h6.3c0.2,1.5,1.4,2.7,3,2.7c0,0,0,0,0,0v4.6c0,1.3,1,2.3,2.3,2.3h46c1.3,0,2.3-1,2.3-2.3
			v-7.3h73.1v33h7.5c0.1,1.5,1.4,2.8,3,2.8c0.1,0,0.1,0,0.2,0v5c0,1.3,1,2.3,2.3,2.3h46c1.3,0,2.3-1,2.3-2.3v-16
			C389.7,134.6,388.7,133.5,387.4,133.5z M208.6,70.6h42.7v12.7h-42.7V70.6z M251.3,116.7h-42.7v-12.7h42.7V116.7z M385.7,150.2
			h-42.7v-12.7h42.7V150.2z"/>
	</g>
	<g>
		<path fill="#387ACC" d="M387.4,167h-46c-1.3,0-2.3,1-2.3,2.3v5c-0.1,0-0.2,0-0.4,0c-1.6,0-2.8,1.2-3,2.7h-13.2v-7.7
			c0-1.3-1-2.3-2.3-2.3h-46c-1.3,0-2.3,1-2.3,2.3v5c-0.1,0-0.1,0-0.2,0c-1.6,0-2.8,1.2-3,2.7h-13.3v-7.7c0-1.3-1-2.3-2.3-2.3h-46
			c-1.3,0-2.3,1-2.3,2.3v5.4c0,0,0,0,0,0c-1.4,0-2.6,1-2.9,2.3h-13.6v-7.7c0-1.3-1-2.3-2.3-2.3h-46c-1.3,0-2.3,1-2.3,2.3v5
			c-1.5,0.1-2.7,1.2-2.8,2.7H96.3v-33h38.3c0.1,1.5,1.3,2.7,2.8,2.7v5c0,1.3,1,2.3,2.3,2.3h46c1.3,0,2.3-1,2.3-2.3v-7.8h13.5
			c0.1,1.5,1.4,2.8,3,2.8c0,0,0,0,0,0v5c0,1.3,1,2.3,2.3,2.3h46c1.3,0,2.3-1,2.3-2.3v-16c0-1.3-1-2.3-2.3-2.3h-46
			c-1.3,0-2.3,1-2.3,2.3v5c0,0,0,0,0,0c-1.4,0-2.6,1-2.9,2.2h-13.6v-7.2c0-1.3-1-2.3-2.3-2.3h-46c-1.3,0-2.3,1-2.3,2.3v5
			c-1.3,0.1-2.4,1-2.7,2.2H96.3v-32h38.4c0.3,1.3,1.4,2.2,2.7,2.3v5c0,1.3,1,2.3,2.3,2.3h46c1.3,0,2.3-1,2.3-2.3v-16
			c0-1.3-1-2.3-2.3-2.3h-46c-1.3,0-2.3,1-2.3,2.3v5c-1.5,0.1-2.7,1.2-2.8,2.7H96.3V87.3h22.3c1.3,0,2.3-1,2.3-2.3v-7.8h13.7
			c0.2,1.4,1.3,2.6,2.8,2.6V85c0,1.3,1,2.3,2.3,2.3h46c1.3,0,2.3-1,2.3-2.3V69c0-1.3-1-2.3-2.3-2.3h-46c-1.3,0-2.3,1-2.3,2.3v4.9
			c-1.4,0.1-2.5,1-2.8,2.3h-13.8V69c0-1.3-1-2.3-2.3-2.3h-20c-0.1-1.3-1-2.4-2.3-2.7V53.8h22.3c1.3,0,2.3-1,2.3-2.3v-16
			c0-1.3-1-2.3-2.3-2.3h-46c-1.3,0-2.3,1-2.3,2.3v16c0,1.3,1,2.3,2.3,2.3h22.7v10.1c-1.4,0.1-2.6,1.3-2.7,2.7h-20
			c-1.3,0-2.3,1-2.3,2.3v16c0,1.3,1,2.3,2.3,2.3h22.7v55.9v1v34h39.4c0.3,1.2,1.4,2.2,2.7,2.2v5c0,1.3,1,2.3,2.3,2.3h46
			c1.3,0,2.3-1,2.3-2.3v-7.3h6.2v34h7.6c0.5,1,1.5,1.7,2.7,1.7c0,0,0,0,0,0v5c0,1.3,1,2.3,2.3,2.3h46c1.3,0,2.3-1,2.3-2.3v-16
			c0-1.3-1-2.3-2.3-2.3h-46c-1.3,0-2.3,1-2.3,2.3v5c0,0,0,0,0,0c-1.7,0-3,1.3-3,3c0,0.1,0,0.2,0,0.2h-6.3v-33h6.3
			c0.2,1.5,1.4,2.7,3,2.7c0,0,0,0,0,0v4.6c0,1.3,1,2.3,2.3,2.3h46c1.3,0,2.3-1,2.3-2.3v-7.3h7v34h6.6c0.5,1,1.5,1.7,2.7,1.7
			c0.1,0,0.1,0,0.2,0v5c0,1.3,1,2.3,2.3,2.3h46c1.3,0,2.3-1,2.3-2.3v-16c0-1.3-1-2.3-2.3-2.3h-46c-1.3,0-2.3,1-2.3,2.3v5
			c-0.1,0-0.1,0-0.2,0c-1.7,0-3,1.3-3,3c0,0.1,0,0.2,0,0.2h-5.3v-33h5.4c0.3,1.3,1.5,2.3,2.9,2.3c0.1,0,0.1,0,0.2,0v5
			c0,1.3,1,2.3,2.3,2.3h46c1.3,0,2.3-1,2.3-2.3v-7.3h13.2c0.3,1.3,1.5,2.3,2.9,2.3c0.1,0,0.3,0,0.4,0v5c0,1.3,1,2.3,2.3,2.3h46
			c1.3,0,2.3-1,2.3-2.3v-16C389.7,168.1,388.7,167,387.4,167z M208.7,137.6h42.7v12.7h-42.7V137.6z M141.5,137.6h42.7v12.7h-42.7
			V137.6z M141.5,104.1h42.7v12.7h-42.7V104.1z M141.5,70.6h42.7v12.7h-42.7V70.6z M74.3,37.2h42.7v12.7H74.3V37.2z M74.3,70.6h42.7
			v12.7H74.3V70.6z M184.1,183.7h-42.7V171h42.7V183.7z M208.7,204.5h42.7v12.7h-42.7V204.5z M251.3,183.7h-42.7V171h42.7V183.7z
			 M275.9,204.5h42.7v12.7h-42.7V204.5z M318.5,183.7h-42.7V171h42.7V183.7z M385.7,183.7h-42.7V171h42.7V183.7z"/>
		<path fill="#387ACC" d="M341.4,53.8h46c1.3,0,2.3-1,2.3-2.3v-16c0-1.3-1-2.3-2.3-2.3h-46c-1.3,0-2.3,1-2.3,2.3v5.4
			c-0.1,0-0.2,0-0.4,0c-1.4,0-2.6,1-2.9,2.3h-13.2v-7.7c0-1.3-1-2.3-2.3-2.3h-46c-1.3,0-2.3,1-2.3,2.3v5.4c-0.1,0-0.1,0-0.2,0
			c-1.4,0-2.6,1-2.9,2.3h-13.4v1h13.3c0.2,1.5,1.4,2.7,3,2.7c0.1,0,0.1,0,0.2,0v4.6c0,1.3,1,2.3,2.3,2.3h46c1.3,0,2.3-1,2.3-2.3
			v-7.3h5.7v67l0.1-0.1v0.1h7.3c0.2,1.5,1.4,2.7,3,2.7c0.1,0,0.3,0,0.4,0v4.6c0,1.3,1,2.3,2.3,2.3h46c1.3,0,2.3-1,2.3-2.3v-16
			c0-1.3-1-2.3-2.3-2.3h-46c-1.3,0-2.3,1-2.3,2.3v5.4c-0.1,0-0.2,0-0.4,0c-1.4,0-2.6,1-2.9,2.3h-6.5v-33h6.5c0.2,1.5,1.4,2.7,3,2.7
			c0.1,0,0.3,0,0.4,0V85c0,1.3,1,2.3,2.3,2.3h46c1.3,0,2.3-1,2.3-2.3V69c0-1.3-1-2.3-2.3-2.3h-46c-1.3,0-2.3,1-2.3,2.3v4.9
			c-0.1,0-0.2,0-0.4,0c-1.4,0-2.6,1-2.9,2.3h-6.5v-32h6.5c0.2,1.5,1.4,2.7,3,2.7c0.1,0,0.3,0,0.4,0v4.7
			C339.1,52.8,340.1,53.8,341.4,53.8z M318.5,49.8h-42.7V37.2h42.7V49.8z M343.1,104.1h42.7v12.7h-42.7V104.1z M343.1,70.6h42.7
			v12.7h-42.7V70.6z M343.1,37.2h42.7v12.7h-42.7V37.2z"/>
	</g>
</g>
</svg>
