<?xml version="1.0" encoding="utf-8"?>
<!-- Generator: Adobe Illustrator 18.1.1, SVG Export Plug-In . SVG Version: 6.00 Build 0)  -->
<svg version="1.1" id="Layer_1" xmlns="http://www.w3.org/2000/svg" xmlns:xlink="http://www.w3.org/1999/xlink" x="0px" y="0px"
	 width="460px" height="265px" viewBox="0 0 460 265" enable-background="new 0 0 460 265" xml:space="preserve">
<path fill="#18C099" d="M404.7,13.9H55.3c-0.7,0-1.2,0.5-1.2,1.2v218.5c0,0.7,0.5,1.2,1.2,1.2h349.5c0.7,0,1.2-0.5,1.2-1.2V15.1
	C405.9,14.4,405.4,13.9,404.7,13.9z M404.7,233.6H55.3V15.1h349.5V233.6z M459.3,250.2h-42.5c0.5-1.4,0.8-2.9,0.8-4.5V13.9
	c0-7.7-6.3-13.9-14-13.9H56.5c-7.7,0-14,6.3-14,13.9v231.8c0,1.6,0.3,3.1,0.8,4.5H0.7c-0.4,0-0.7,0.3-0.7,0.7v7.1
	c0,0.2,0,0.8,0.5,1.2c0.1,0.1,0.3,0.2,0.4,0.3c0,0,0,0,0,0c3.2,2.2,11.1,5.4,20,5.4H439c8.9,0,16.9-3.2,20-5.4h0
	c0.2-0.1,0.4-0.3,0.5-0.4c0.4-0.3,0.4-0.8,0.4-1V251C460,250.6,459.7,250.2,459.3,250.2z M43.5,13.9c0-7.2,5.8-13,13-13h347.1
	c7.2,0,13,5.8,13,13v231.8c0,1.6-0.3,3.1-0.8,4.5h-38l0-0.2l-1.1-5h33.9c2.7,0,4.8-2.2,4.8-4.8v-22.6v-1.2V13.8
	c0-6.4-5.2-11.5-11.5-11.5H56.3c-6.4,0-11.5,5.2-11.5,11.5v202.6v1.2v22.6c0,2.7,2.2,4.8,4.8,4.8h32.8l-1.1,5l0,0.2H44.3
	c-0.5-1.4-0.8-2.9-0.8-4.5V13.9z M197.5,250.2h-47.6h-15.1H82.2l1.2-5.2h51.4h15.1h225.7l1.2,5.2H262.5H197.5z M261.5,251.2
	c-0.3,1.6-1.8,4.2-4.5,4.2h-54c-2.7,0-4.2-2.7-4.5-4.2H261.5z M49.6,244c-2.1,0-3.9-1.7-3.9-3.9v-22.6v-1.2V13.8
	c0-5.8,4.7-10.6,10.6-10.6h347.4c5.8,0,10.6,4.7,10.6,10.6v202.6v1.2v22.6c0,2.1-1.7,3.9-3.9,3.9H49.6z M439,264H21
	c-7.5,0-14.4-2.4-18-4.4h454.1C453.4,261.7,446.6,264,439,264z M459,258.2c0,0.1,0,0.2,0,0.2c-0.1,0.1-0.2,0.2-0.3,0.3H1.4
	c-0.1-0.1-0.2-0.1-0.3-0.2C1,258.4,1,258.4,1,258.1v-6.9h80h1.2h52.5h15.1h47.7c0.3,2,2.2,5.2,5.5,5.2h54c3.3,0,5.2-3.2,5.5-5.2
	h114.2h1.2H459V258.2z"/>
<g>
	<path fill="#DDDDDD" d="M204,76.8v5c0,1.3,1.1,2.6,2.4,2.6h46c1.3,0,2.6-1.3,2.6-2.6v-16c0-1.3-1.3-2.4-2.6-2.4h-46
		c-1.3,0-2.4,1.1-2.4,2.4v5c-2,0.2-2.5,1.6-2.9,2.6H185v1h16.1C201.2,75.5,202,76.7,204,76.8z M208,67.5h43v13h-43V67.5z"/>
	<path fill="#DDDDDD" d="M386.8,164.5h-46c-1.3,0-1.8,0.5-1.8,1.8v5.1c-1,0-0.5,0.2-0.7,0.2c-1.6,0-3,1-3.1,3H322v-8.2
		c0-1.3-1.1-1.8-2.4-1.8h-46c-1.3,0-1.6,0.5-1.6,1.8v5.1c-1,0-0.6,0.2-0.8,0.2c-1.6,0-3,1-3.1,3H255v-8.2c0-1.3-1.3-1.8-2.6-1.8h-46
		c-1.3,0-2.4,0.5-2.4,1.8v5.4c-2,0.2-2.6,0.8-2.9,2.8H188v-8.2c0-1.3-1.5-1.8-2.8-1.8h-46c-1.3,0-2.2,0.5-2.2,1.8v5
		c-2,0.2-2.9,1.2-3,3.2H96v-33h38c0.1,1,1,2.1,3,2.3v5c0,1.3,0.9,2.7,2.2,2.7h46c1.3,0,2.8-1.4,2.8-2.7v-7.3h13.1
		c0.1,1,0.9,2.1,2.9,2.3v5c0,1.3,1.1,2.7,2.4,2.7h46c1.3,0,2.6-1.4,2.6-2.7v-16c0-1.3-1.3-2.3-2.6-2.3h-46c-1.3,0-2.4,1-2.4,2.3v5
		c-2,0.2-2.5,1.6-2.9,2.6H188v-7.7c0-1.3-1.5-2.3-2.8-2.3h-46c-1.3,0-2.2,1-2.2,2.3v5c-2,0.1-2.6,1.6-2.9,2.6H96v-32h38.1
		c0.3,1,0.9,1.7,2.9,1.8v5c0,1.3,0.9,2.2,2.2,2.2h46c1.3,0,2.8-0.9,2.8-2.2v-6.8h13.1c0.2,1,0.9,2,2.9,2.2v4.6
		c0,1.3,1.1,2.2,2.4,2.2h46c1.3,0,2.6-0.9,2.6-2.2v-16c0-1.3-1.3-1.9-2.6-1.9h-46c-1.3,0-2.4,0.6-2.4,1.9v5.4
		c-2,0.2-2.6,1.7-2.9,2.7H188v-8.1c0-1.3-1.5-1.9-2.8-1.9h-46c-1.3,0-2.2,0.6-2.2,1.9v5c-2,0.2-2.8,1.1-3,3.1H96v-25h-1v57.6v1v34.4
		h39.1c0.3,1,0.9,1.6,2.9,1.8v5c0,1.3,0.9,2.2,2.2,2.2h46c1.3,0,2.8-0.9,2.8-2.2v-6.8h6v34h7.3c0.4,1,1.7,1.1,2.7,1.2v5
		c0,1.3,1.1,2.7,2.4,2.7h46c1.3,0,2.6-1.5,2.6-2.7v-16c0-1.3-1.3-2.3-2.6-2.3h-46c-1.3,0-2.4,1-2.4,2.3v5c-2,0.2-2.8,1.7-2.8,3.2
		c0,0.1-0.1,0.5-0.1,0.5H195v-33h6.1c0.2,1,0.9,2,2.9,2.2v4.6c0,1.3,1.1,2.2,2.4,2.2h46c1.3,0,2.6-0.9,2.6-2.2v-6.8h7v34h6.3
		c0.5,1,1.7,1.5,2.9,1.5c0.2,0-0.2-0.3,0.8-0.3v5.1c0,1.3,0.3,2.7,1.6,2.7h46c1.3,0,2.4-1.5,2.4-2.7v-16c0-1.3-1.1-2.3-2.4-2.3h-46
		c-1.3,0-1.6,1-1.6,2.3v5.1c-1,0-0.6-0.1-0.8-0.1c-1.7,0-3.1,1.6-3.1,3.2c0,0.1-0.1,0.5-0.1,0.5H263v-33h5.2c0.3,1,1.7,2,3.1,2
		c0.2,0-0.2-0.3,0.8-0.3v5.1c0,1.3,0.3,2.2,1.6,2.2h46c1.3,0,2.4-0.9,2.4-2.2v-6.8h13.2c0.3,1,1.7,2,3.1,2c0.2,0-0.3-0.3,0.7-0.3
		v5.1c0,1.3,0.5,2.2,1.8,2.2h46c1.3,0,3.2-0.9,3.2-2.2v-16C390,165,388.1,164.5,386.8,164.5z M208,134.5h43v13h-43V134.5z
		 M141,134.5h43v13h-43V134.5z M208,101.5h43v12h-43V101.5z M141,101.5h43v12h-43V101.5z M184,180.5h-43v-12h43V180.5z M208,201.5
		h43v13h-43V201.5z M251,180.5h-43v-12h43V180.5z M276,201.5h42v13h-42V201.5z M318,180.5h-42v-12h42V180.5z M386,180.5h-43v-12h43
		V180.5z"/>
	<path fill="#DDDDDD" d="M386.8,30.5h-46c-1.3,0-1.8,0.6-1.8,1.9v5.4c-1,0-0.5,0.1-0.7,0.1c-1.4,0-2.8,0.5-3.1,2.5H320v1h15.1
		c0.2,1,1.6,2.5,3.1,2.5c0.2,0-0.3-0.2,0.7-0.2v4.7c0,1.3,0.5,2.1,1.8,2.1h46c1.3,0,3.2-0.8,3.2-2.1v-16
		C390,31.1,388.1,30.5,386.8,30.5z M386,46.5h-43v-12h43V46.5z"/>
	<path fill="#DDDDDD" d="M386.8,63.5h-46c-1.3,0-1.8,1.1-1.8,2.4v4.9c-1,0-0.5,0.1-0.7,0.1c-1.4,0-2.8,0.5-3.1,2.5H328v1h7.1
		c0.2,1,1.6,2.5,3.1,2.5c0.2,0-0.3-0.2,0.7-0.3v5.2c0,1.3,0.5,2.6,1.8,2.6h46c1.3,0,3.2-1.3,3.2-2.6v-16
		C390,64.6,388.1,63.5,386.8,63.5z M386,80.5h-43v-13h43V80.5z"/>
</g>
<path fill="#F66DC4" d="M387.8,97.5h-46c-1.3,0-3.8,1.1-3.8,2.4v5.4c-1,0-2.4,1.3-2.4,2.9c0,0.1,0.6,0.3,0.6,0.3H329V41.7v-1.2h-0.2
	H322V33c0-1.3-0.1-2.5-1.4-2.5h-46c-1.3,0-3.6,1.2-3.6,2.5v5.4c0,0,0.5-0.1,0.5-0.1c-1.4,0-2.1,1.2-2.4,2.2H255V33
	c0-1.3-0.3-2.5-1.6-2.5h-46c-1.3,0-3.4,1.2-3.4,2.5v5.4c0,0,0.5-0.1,0.5-0.1c-1.4,0-2.1,1.2-2.4,2.2H194v33h-7v-7.1
	c0-1.3,0.5-2.9-0.8-2.9h-46c-1.3,0-3.2,1.7-3.2,2.9v4.9c0,0,0.5-0.1,0.5-0.1c-1.4,0-2.1,1.2-2.4,2.2H120v-7.1c0-1.3,0.3-2.9-1-2.9
	H98.9c-0.3-1-1.9-1.8-2.9-2.1v-9.9h23c1.3,0,1-1.2,1-2.5V33c0-1.3,0.3-2.5-1-2.5H73c-1.3,0-3,1.2-3,2.5v16c0,1.3,1.7,2.5,3,2.5h22
	v9.9c-2,0.1-1.6,1.1-1.9,2.1H73c-1.3,0-3,1.7-3,2.9v16c0,1.3,1.7,2.1,3,2.1h46c1.3,0,1-0.8,1-2.1v-7.9h15c0.2,1,0.9,2.7,2.4,2.7
	c0,0-0.5,0.1-0.5,0.1v5.1c0,1.3,1.9,2.1,3.2,2.1h46c1.3,0,0.8-0.8,0.8-2.1v-7.9h7.7h0.3v-0.8V41.5h7.1c0.2,2,0.9,2.8,2.4,2.8
	c0,0-0.5,0.1-0.5,0.1V49c0,1.3,2.1,2.5,3.4,2.5h46c1.3,0,1.6-1.2,1.6-2.5v-7.5h14.1c0.2,2,0.9,2.8,2.4,2.8c0,0-0.5,0.1-0.5,0.1V49
	c0,1.3,2.3,2.5,3.6,2.5h46c1.3,0,1.4-1.2,1.4-2.5v-7.5h6v68h8.4c0.5,1,0.6,1.8,1.6,1.8v4.6c0,1.3,2.5,2.6,3.8,2.6h46
	c1.3,0,1.2-1.4,1.2-2.6v-16C389,98.6,389.1,97.5,387.8,97.5z M74,34.5h42v13H74V34.5z M116,80.5H74v-13h42V80.5z M183,80.5h-42v-13
	h42V80.5z M251,47.5h-43v-13h43V47.5z M318,47.5h-43v-13h43V47.5z M385,114.5h-43v-13h43V114.5z"/>
</svg>
