<?xml version="1.0" encoding="utf-8"?>
<!-- Generator: Adobe Illustrator 18.1.1, SVG Export Plug-In . SVG Version: 6.00 Build 0)  -->
<svg version="1.1" id="Layer_1" xmlns="http://www.w3.org/2000/svg" xmlns:xlink="http://www.w3.org/1999/xlink" x="0px" y="0px"
	 width="460px" height="265px" viewBox="0 0 460 265" enable-background="new 0 0 460 265" xml:space="preserve">
<path fill="#387ACC" d="M404.7,13.9H55.3c-0.7,0-1.2,0.5-1.2,1.2v218.5c0,0.7,0.5,1.2,1.2,1.2h349.5c0.7,0,1.2-0.5,1.2-1.2V15.1
	C405.9,14.4,405.4,13.9,404.7,13.9z M404.7,233.6H55.3V15.1h349.5V233.6z M459.3,250.2h-42.5c0.5-1.4,0.8-2.9,0.8-4.5V13.9
	c0-7.7-6.3-13.9-14-13.9H56.5c-7.7,0-14,6.3-14,13.9v231.8c0,1.6,0.3,3.1,0.8,4.5H0.7c-0.4,0-0.7,0.3-0.7,0.7v7.1
	c0,0.2,0,0.8,0.5,1.2c0.1,0.1,0.3,0.2,0.4,0.3c0,0,0,0,0,0c3.2,2.2,11.1,5.4,20,5.4H439c8.9,0,16.9-3.2,20-5.4h0
	c0.2-0.1,0.4-0.3,0.5-0.4c0.4-0.3,0.4-0.8,0.4-1V251C460,250.6,459.7,250.2,459.3,250.2z M43.5,13.9c0-7.2,5.8-13,13-13h347.1
	c7.2,0,13,5.8,13,13v231.8c0,1.6-0.3,3.1-0.8,4.5h-38l0-0.2l-1.1-5h33.9c2.7,0,4.8-2.2,4.8-4.8v-22.6v-1.2V13.8
	c0-6.4-5.2-11.5-11.5-11.5H56.3c-6.4,0-11.5,5.2-11.5,11.5v202.6v1.2v22.6c0,2.7,2.2,4.8,4.8,4.8h32.8l-1.1,5l0,0.2H44.3
	c-0.5-1.4-0.8-2.9-0.8-4.5V13.9z M197.5,250.2h-47.6h-15.1H82.2l1.2-5.2h51.4h15.1h225.7l1.2,5.2H262.5H197.5z M261.5,251.2
	c-0.3,1.6-1.8,4.2-4.5,4.2h-54c-2.7,0-4.2-2.7-4.5-4.2H261.5z M49.6,244c-2.1,0-3.9-1.7-3.9-3.9v-22.6v-1.2V13.8
	c0-5.8,4.7-10.6,10.6-10.6h347.4c5.8,0,10.6,4.7,10.6,10.6v202.6v1.2v22.6c0,2.1-1.7,3.9-3.9,3.9H49.6z M439,264H21
	c-7.5,0-14.4-2.4-18-4.4h454.1C453.4,261.7,446.6,264,439,264z M459,258.2c0,0.1,0,0.2,0,0.2c-0.1,0.1-0.2,0.2-0.3,0.3H1.4
	c-0.1-0.1-0.2-0.1-0.3-0.2C1,258.4,1,258.4,1,258.1v-6.9h80h1.2h52.5h15.1h47.7c0.3,2,2.2,5.2,5.5,5.2h54c3.3,0,5.2-3.2,5.5-5.2
	h114.2h1.2H459V258.2z"/>
<path fill="#FC7B5C" d="M341.4,51h46c1.3,0,2.3-1,2.3-2.3v-16c0-1.3-1-2.3-2.3-2.3h-46c-1.3,0-2.3,1-2.3,2.3v5.4c-0.1,0-0.2,0-0.4,0
	c-1.4,0-2.6,1-2.9,2.3h-6.4h-1h-5.8v-7.7c0-1.3-1-2.3-2.3-2.3h-46c-1.3,0-2.3,1-2.3,2.3v5.4c-0.1,0-0.1,0-0.2,0
	c-1.4,0-2.6,1-2.9,2.3h-13.4v-7.7c0-1.3-1-2.3-2.3-2.3h-46c-1.3,0-2.3,1-2.3,2.3v5.4c0,0,0,0,0,0c-1.4,0-2.6,1-2.9,2.3h-7.4v33h-6.2
	v-7.2c0-1.3-1-2.3-2.3-2.3h-46c-1.3,0-2.3,1-2.3,2.3v4.9c-1.4,0.1-2.5,1-2.8,2.3h-13.8v-7.2c0-1.3-1-2.3-2.3-2.3h-20
	c-0.1-1.3-1-2.4-2.3-2.7V51h22.3c1.3,0,2.3-1,2.3-2.3v-16c0-1.3-1-2.3-2.3-2.3h-46c-1.3,0-2.3,1-2.3,2.3v16c0,1.3,1,2.3,2.3,2.3
	h22.7v10.1c-1.4,0.1-2.6,1.3-2.7,2.7h-20c-1.3,0-2.3,1-2.3,2.3v16c0,1.3,1,2.3,2.3,2.3h22.7v55.9v1v34h39.4c0.3,1.2,1.4,2.2,2.7,2.2
	v5c0,1.3,1,2.3,2.3,2.3h46c1.3,0,2.3-1,2.3-2.3v-7.3h6.2v34h7.6c0.5,1,1.5,1.7,2.7,1.7c0,0,0,0,0,0v5c0,1.3,1,2.3,2.3,2.3h46
	c1.3,0,2.3-1,2.3-2.3v-16c0-1.3-1-2.3-2.3-2.3h-46c-1.3,0-2.3,1-2.3,2.3v5c0,0,0,0,0,0c-1.7,0-3,1.3-3,3c0,0.1,0,0.2,0,0.2h-6.3v-33
	h6.3c0.2,1.5,1.4,2.7,3,2.7c0,0,0,0,0,0v4.6c0,1.3,1,2.3,2.3,2.3h46c1.3,0,2.3-1,2.3-2.3v-7.3h7v34h6.6c0.5,1,1.5,1.7,2.7,1.7
	c0.1,0,0.1,0,0.2,0v5c0,1.3,1,2.3,2.3,2.3h46c1.3,0,2.3-1,2.3-2.3v-16c0-1.3-1-2.3-2.3-2.3h-46c-1.3,0-2.3,1-2.3,2.3v5
	c-0.1,0-0.1,0-0.2,0c-1.7,0-3,1.3-3,3c0,0.1,0,0.2,0,0.2h-5.3v-33h5.4c0.3,1.3,1.5,2.3,2.9,2.3c0.1,0,0.1,0,0.2,0v5
	c0,1.3,1,2.3,2.3,2.3h46c1.3,0,2.3-1,2.3-2.3v-7.3h13.2c0.3,1.3,1.5,2.3,2.9,2.3c0.1,0,0.3,0,0.4,0v5c0,1.3,1,2.3,2.3,2.3h46
	c1.3,0,2.3-1,2.3-2.3v-16c0-1.3-1-2.3-2.3-2.3h-46c-1.3,0-2.3,1-2.3,2.3v5c-0.1,0-0.2,0-0.4,0c-1.6,0-2.8,1.2-3,2.7h-13.2v-7.7
	c0-1.3-1-2.3-2.3-2.3h-46c-1.3,0-2.3,1-2.3,2.3v5c-0.1,0-0.1,0-0.2,0c-1.6,0-2.8,1.2-3,2.7h-13.3v-7.7c0-1.3-1-2.3-2.3-2.3h-46
	c-1.3,0-2.3,1-2.3,2.3v5.4c0,0,0,0,0,0c-1.4,0-2.6,1-2.9,2.3h-13.6v-7.7c0-1.3-1-2.3-2.3-2.3h-46c-1.3,0-2.3,1-2.3,2.3v5
	c-1.5,0.1-2.7,1.2-2.8,2.7H96.3v-33h38.3c0.1,1.5,1.3,2.7,2.8,2.7v5c0,1.3,1,2.3,2.3,2.3h46c1.3,0,2.3-1,2.3-2.3v-7.8h13.5
	c0.1,1.5,1.4,2.8,3,2.8c0,0,0,0,0,0v5c0,1.3,1,2.3,2.3,2.3h46c1.3,0,2.3-1,2.3-2.3v-16c0-1.3-1-2.3-2.3-2.3h-46
	c-1.3,0-2.3,1-2.3,2.3v5c0,0,0,0,0,0c-1.4,0-2.6,1-2.9,2.2h-13.6v-7.2c0-1.3-1-2.3-2.3-2.3h-46c-1.3,0-2.3,1-2.3,2.3v5
	c-1.3,0.1-2.4,1-2.7,2.2H96.3v-32h38.4c0.3,1.3,1.4,2.2,2.7,2.3v5c0,1.3,1,2.3,2.3,2.3h46c1.3,0,2.3-1,2.3-2.3v-7.3h13.5
	c0.2,1.5,1.4,2.7,3,2.7c0,0,0,0,0,0v4.6c0,1.3,1,2.3,2.3,2.3h46c1.3,0,2.3-1,2.3-2.3v-16c0-1.3-1-2.3-2.3-2.3h-46
	c-1.3,0-2.3,1-2.3,2.3v5.4c0,0,0,0,0,0c-1.4,0-2.6,1-2.9,2.3h-13.6v-7.7c0-1.3-1-2.3-2.3-2.3h-46c-1.3,0-2.3,1-2.3,2.3v5
	c-1.5,0.1-2.7,1.2-2.8,2.7H96.3V84.5h22.3c1.3,0,2.3-1,2.3-2.3v-7.8h13.7c0.2,1.4,1.3,2.6,2.8,2.6v5.1c0,1.3,1,2.3,2.3,2.3h46
	c1.3,0,2.3-1,2.3-2.3v-7.8h6.2h1h6.3c0.1,1.5,1.4,2.8,3,2.8c0,0,0,0,0,0v5c0,1.3,1,2.3,2.3,2.3h46c1.3,0,2.3-1,2.3-2.3v-16
	c0-1.3-1-2.3-2.3-2.3h-46c-1.3,0-2.3,1-2.3,2.3v5c0,0,0,0,0,0c-1.4,0-2.5,0.9-2.9,2.2h-6.4v-32h6.3c0.2,1.5,1.4,2.7,3,2.7
	c0,0,0,0,0,0v4.6c0,1.3,1,2.3,2.3,2.3h46c1.3,0,2.3-1,2.3-2.3v-7.3h13.4c0.2,1.5,1.4,2.7,3,2.7c0.1,0,0.1,0,0.2,0v4.6
	c0,1.3,1,2.3,2.3,2.3h46c1.3,0,2.3-1,2.3-2.3v-7.3h5.8v32v1v35h7.6c0.5,1,1.5,1.7,2.7,1.7c0.1,0,0.3,0,0.4,0v4.6
	c0,1.3,1,2.3,2.3,2.3h46c1.3,0,2.3-1,2.3-2.3v-16c0-1.3-1-2.3-2.3-2.3h-46c-1.3,0-2.3,1-2.3,2.3v5.4c-0.1,0-0.2,0-0.4,0
	c-1.7,0-3,1.3-3,3c0,0.1,0,0.2,0,0.3h-6.3v-34h6.3c0.2,1.5,1.4,2.7,3,2.7c0.1,0,0.3,0,0.4,0v5.1c0,1.3,1,2.3,2.3,2.3h46
	c1.3,0,2.3-1,2.3-2.3v-16c0-1.3-1-2.3-2.3-2.3h-46c-1.3,0-2.3,1-2.3,2.3v4.9c-0.1,0-0.2,0-0.4,0c-1.4,0-2.6,1-2.9,2.3h-6.4v-32h6.3
	c0.2,1.5,1.4,2.7,3,2.7c0.1,0,0.3,0,0.4,0v4.7C339.1,50,340.1,51,341.4,51z M74.3,34.3h42.7V47H74.3V34.3z M208.7,201.7h42.7v12.7
	h-42.7V201.7z M275.9,201.7h42.7v12.7h-42.7V201.7z M343.1,168.2h42.7v12.7h-42.7V168.2z M275.9,168.2h42.7v12.7h-42.7V168.2z
	 M208.7,168.2h42.7v12.7h-42.7V168.2z M141.5,168.2h42.7v12.7h-42.7V168.2z M208.7,134.8h42.7v12.7h-42.7V134.8z M141.5,134.8h42.7
	v12.7h-42.7V134.8z M208.7,101.3h42.7v12.7h-42.7V101.3z M141.5,101.3h42.7v12.7h-42.7V101.3z M116.9,80.5H74.3V67.8h42.7V80.5z
	 M184.1,80.5h-42.7V67.8h42.7V80.5z M208.7,67.8h42.7v12.7h-42.7V67.8z M251.3,47h-42.7V34.3h42.7V47z M318.5,47h-42.7V34.3h42.7V47
	z M343.1,101.3h42.7v12.7h-42.7V101.3z M343.1,67.8h42.7v12.7h-42.7V67.8z M343.1,34.3h42.7V47h-42.7V34.3z"/>
</svg>
