<svg xmlns="http://www.w3.org/2000/svg" width="15" height="15" x="0" y="0" enable-background="new 0 0 15 15" version="1.1" viewBox="0 0 15 15" xml:space="preserve"><path fill="#FFF" d="M10.5 15C10.5 15 10.5 15 10.5 15c-1.4 0-3.1-0.2-3.1-0.2l-3-0.6c-0.2 0-0.3-0.2-0.3-0.4V8.1c0-0.2 0.2-0.4 0.4-0.4h0.3c0 0 0.7 0 1.8-2.9 0.2-0.5 0.6-0.8 1-1.1 0.5-0.4 0.9-0.9 1-3.1C8.6 0.3 8.8 0 9.3 0c0.4 0 1.1 0.2 1.5 0.8 0.5 0.7 0.6 2 0.2 3 -0.1 0.1-0.2 0.3-0.3 0.6 -0.1 0.3-0.5 1-0.6 1.4 0.3 0 0.8 0 1.2 0 1.7 0 2.2 0.1 2.4 0.2C14.3 6 15 7 15 7.6c0 0.2-0.2 0.4-0.3 0.6 0 0.1-0.1 0.1-0.1 0.2 0 0.1 0.1 0.2 0.2 0.3C14.8 9 15 9.2 15 9.5c0 0.3-0.2 0.5-0.4 0.8 -0.1 0.1-0.2 0.2-0.2 0.3 0 0 0.1 0.2 0.1 0.3 0.1 0.2 0.2 0.4 0.2 0.6 0 0.4-0.3 0.7-0.6 1 -0.1 0.1-0.2 0.2-0.2 0.3 0 0 0 0.2 0 0.3 0 0.2 0 0.4-0.1 0.6 -0.2 0.5-0.9 1.1-1.4 1.2C12 14.9 11.4 15 10.5 15zM2.7 14.5H1c-0.5 0-1-0.4-1-1V8.2c0-0.5 0.4-1 1-1h1.7c0.5 0 1 0.4 1 1v5.4C3.6 14.1 3.2 14.5 2.7 14.5zM1 8C0.9 8 0.8 8.1 0.8 8.2v5.4c0 0.1 0.1 0.2 0.2 0.2h1.7c0.1 0 0.2-0.1 0.2-0.2V8.2C2.8 8.1 2.8 8 2.7 8H1z"/></svg>