<svg xmlns="http://www.w3.org/2000/svg" version="1.1" x="0" y="0" width="30.8" height="25" viewBox="0 0 30.8 25" enable-background="new 0 0 30.8 25" xml:space="preserve"><path fill="#5FA9DD" d="M30.8 3c-1.1 0.5-2.3 0.8-3.6 1 1.3-0.8 2.3-2 2.8-3.5 -1.2 0.7-2.6 1.2-4 1.5 -1.2-1.2-2.8-2-4.6-2C17.8 0 15 2.8 15 6.3c0 0.5 0.1 1 0.2 1.4C9.9 7.5 5.3 5 2.1 1.2c-0.5 0.9-0.9 2-0.9 3.2 0 2.2 1.1 4.1 2.8 5.3 -1 0-2-0.3-2.9-0.8 0 0 0 0.1 0 0.1 0 3.1 2.2 5.6 5.1 6.2 -0.5 0.1-1.1 0.2-1.7 0.2 -0.4 0-0.8 0-1.2-0.1 0.8 2.5 3.1 4.3 5.9 4.4 -2.2 1.7-4.9 2.7-7.8 2.7 -0.5 0-1 0-1.5-0.1C2.8 24 6.1 25 9.7 25c11.6 0 18-9.6 18-18 0-0.3 0-0.5 0-0.8C28.8 5.3 29.9 4.2 30.8 3z"/></svg>